<svg width="180" height="55" viewBox="0 0 180 55" fill="none" xmlns="http://www.w3.org/2000/svg">
<g clip-path="url(#clip0_6511_23)">
<g clip-path="url(#clip1_6511_23)">
<g clip-path="url(#clip2_6511_23)">
<mask id="mask0_6511_23" style="mask-type:luminance" maskUnits="userSpaceOnUse" x="0" y="5" width="66" height="51">
<path d="M65.3053 5.02271H0.00976562V55.25H65.3053V5.02271Z" fill="white"/>
</mask>
<g mask="url(#mask0_6511_23)">
<path opacity="0.8" d="M48.9359 38.4578C55.1528 39.1017 60.9408 32.4 61.8637 23.4891C62.7866 14.5782 58.495 6.83249 52.2781 6.18859C46.0613 5.54469 40.2733 12.2464 39.3504 21.1573C38.4275 30.0682 42.719 37.8139 48.9359 38.4578Z" fill="#FDC040"/>
<path d="M39.6178 42.7295C45.5327 40.71 47.9812 32.2001 45.0866 23.7221C42.192 15.244 35.0505 10.0083 29.1356 12.0278C23.2208 14.0472 20.7723 22.5571 23.6669 31.0352C26.5614 39.5132 33.7029 44.7489 39.6178 42.7295Z" fill="#FDC040"/>
<path d="M22.6117 32.6477H62.8529C63.1741 32.7873 63.9128 33.3174 64.2981 34.3219C64.7799 35.5776 66.142 53.9943 43.1212 50.2272C25.0079 50.2272 20.7813 49.6691 20.9419 49.3901C24.286 48.553 24.7045 45.2045 25.1231 42.6932C25.5417 40.1818 22.6117 32.6477 22.6117 32.6477Z" fill="#81B13D"/>
<path d="M52.8471 15.4301C52.3187 15.4301 51.8906 15.8583 51.8906 16.3865V16.5393C51.8906 17.0677 52.3187 17.4958 52.8471 17.4958C53.3755 17.4958 53.8036 17.0677 53.8036 16.5393V16.3865C53.8036 15.8582 53.3755 15.4301 52.8471 15.4301Z" fill="#253D4E"/>
<path d="M55.3315 19.6973C54.8032 19.6973 54.375 20.1254 54.375 20.6537V20.8065C54.375 21.3348 54.8032 21.763 55.3315 21.763C55.8599 21.763 56.288 21.3349 56.288 20.8065V20.6537C56.288 20.1254 55.8599 19.6973 55.3315 19.6973Z" fill="#253D4E"/>
<path d="M34.3871 18.7991L34.3162 18.6635C34.0718 18.1951 33.4937 18.0136 33.0258 18.2582C32.5575 18.5027 32.3761 19.0804 32.6205 19.5487L32.6913 19.6843C32.8617 20.0112 33.195 20.1985 33.5399 20.1985C33.6891 20.1985 33.8403 20.1635 33.9817 20.0896C34.45 19.8451 34.6315 19.2674 34.3871 18.7991Z" fill="#253D4E"/>
<path d="M38.5648 21.4316L38.494 21.2961C38.2495 20.8277 37.6716 20.6462 37.2036 20.8908C36.7352 21.1353 36.5538 21.713 36.7982 22.1813L36.869 22.3169C37.0395 22.6439 37.3727 22.8311 37.7176 22.8311C37.8668 22.8311 38.0181 22.7962 38.1595 22.7222C38.6278 22.4777 38.8092 21.8999 38.5648 21.4316Z" fill="#253D4E"/>
<path d="M32.6125 40.4614L29.7676 37.6162C29.394 37.2427 28.7883 37.2426 28.4151 37.6162C28.0414 37.9897 28.0414 38.5953 28.4149 38.9687L31.2598 41.8138C31.4467 42.0007 31.6913 42.094 31.9362 42.094C32.1808 42.094 32.4257 42.0007 32.6125 41.814C32.9861 41.4404 32.9861 40.8348 32.6125 40.4614Z" fill="#253D4E"/>
<path d="M41.0669 38.6788C40.7607 38.2486 40.1637 38.1478 39.7331 38.4543L29.8041 45.5232C29.3739 45.8295 29.2733 46.4267 29.5797 46.857C29.7662 47.1192 30.0606 47.2588 30.3597 47.2588C30.5514 47.2588 30.7453 47.2012 30.9135 47.0815L40.8424 40.0126C41.2727 39.7063 41.3732 39.1091 41.0669 38.6788Z" fill="#253D4E"/>
<path d="M44.5762 40.1215C44.2701 39.6913 43.6729 39.5906 43.2423 39.8971L39.4311 42.6105C39.0007 42.917 38.9004 43.5141 39.2067 43.9444C39.3932 44.2066 39.6876 44.3463 39.9866 44.3463C40.1785 44.3463 40.3722 44.2886 40.5405 44.1688L44.3518 41.4554C44.7821 41.1491 44.8825 40.5519 44.5762 40.1215Z" fill="#253D4E"/>
<path d="M65.1246 35.7817C64.8155 35.3532 64.2178 35.2565 63.7892 35.5652L63.4706 35.795C63.472 35.7129 63.4738 35.631 63.4738 35.5488C63.4738 34.6364 63.1188 33.7778 62.4722 33.1295C61.8258 32.4846 60.9671 32.1296 60.0547 32.1296H59.7716C60.8213 30.1014 61.3543 27.6592 61.3543 24.8399C61.3543 19.3108 59.2817 13.2671 56.0742 9.44313C55.7345 9.0383 55.1313 8.98531 54.7266 9.32501C54.322 9.66455 54.2691 10.2679 54.6085 10.6725C57.5444 14.1724 59.4415 19.7336 59.4415 24.8399C59.4415 27.7827 58.8089 30.232 57.5613 32.1296H55.6676L56.5089 31.5306C56.9394 31.2243 57.0398 30.627 56.7335 30.1967C56.4272 29.7664 55.8303 29.6657 55.3996 29.9723L52.3695 32.1296H46.6801C47.2534 29.2253 46.6562 25.9807 44.9234 22.6616C43.6831 20.2864 41.9215 17.9882 39.8952 16.0411C41.9823 10.7619 45.4363 7.38477 48.8019 7.38477C49.8183 7.38477 50.8426 7.6805 51.8462 8.26409C52.3029 8.52933 52.8884 8.37438 53.1539 7.91784C53.4193 7.46115 53.2644 6.87566 52.8077 6.61014C51.5082 5.85478 50.1605 5.4718 48.8019 5.4718C44.7302 5.4718 40.815 8.97049 38.3806 14.6928C37.5514 14.0105 36.6921 13.3902 35.8167 12.8496C31.6963 10.3049 27.7946 9.75571 24.8307 11.303C22.0968 12.7318 20.3457 15.8998 19.8996 20.2234C19.8453 20.7489 20.2274 21.2188 20.7527 21.2729C21.2795 21.328 21.7482 20.945 21.8022 20.4197C22.1804 16.7556 23.5704 14.12 25.7161 12.9986C30.9403 10.2712 39.568 16.5393 43.2277 23.547C44.8554 26.6649 45.3561 29.5481 44.7225 32.1297H33.9985C33.9958 32.1297 33.9933 32.1297 33.9906 32.1297H29.0894L27.4841 30.5245C27.1104 30.1511 26.5049 30.1511 26.1314 30.5245C25.7579 30.8981 25.7579 31.5037 26.1314 31.8772L26.3838 32.1296H23.7579C22.6925 29.7082 21.9921 26.9276 21.7749 24.2302C21.7326 23.7037 21.2719 23.31 20.7449 23.3536C20.2183 23.3959 19.8259 23.857 19.8682 24.3836C20.0446 26.5757 20.4971 28.7568 21.1954 30.8153C18.4693 28.4922 14.9085 27.2438 11.2424 27.443C10.9007 27.4616 10.5948 27.6614 10.4407 27.9669C9.00224 30.815 8.59782 34.0298 9.19436 37.0742C9.19997 37.1666 9.21821 37.2552 9.2481 37.3384C9.43553 38.2071 9.70592 39.0601 10.0568 39.8856C5.96288 40.5206 2.32736 42.9337 0.148241 46.5282C-0.0291545 46.8208 -0.0365513 47.1859 0.128602 47.4857C1.66981 50.2828 4.09915 52.4317 6.95317 53.6562C7.0293 53.7008 7.10875 53.7346 7.1905 53.7563C8.76667 54.3989 10.4663 54.762 12.2141 54.7981C12.3099 54.8001 12.4046 54.801 12.5001 54.801C13.1805 54.801 13.8545 54.7496 14.5185 54.6531C14.5811 54.6494 14.6432 54.6413 14.7035 54.6257C17.5148 54.1784 20.1284 52.8875 22.1918 50.9478C22.2386 50.9548 22.2861 50.9597 22.3348 50.9597H26.6267C27.155 50.9597 27.5832 50.5316 27.5832 50.0032C27.5832 49.4749 27.155 49.0467 26.6267 49.0467H23.8805C24.1314 48.7065 24.3693 48.3544 24.5907 47.989C24.5975 47.9778 24.6029 47.9661 24.6092 47.9548C24.6149 47.9444 24.6218 47.9351 24.6272 47.9243C26.855 43.5107 26.6029 38.2172 23.9852 34.0425H28.2967L30.9008 36.6466C31.0876 36.8333 31.3324 36.9267 31.5772 36.9267C31.8219 36.9267 32.0668 36.8333 32.2536 36.6466C32.6271 36.2729 32.6271 35.6675 32.2536 35.2939L31.0023 34.0425H33.5984L37.1494 37.5935C37.3363 37.7803 37.5811 37.8736 37.8258 37.8736C38.0706 37.8736 38.3155 37.7803 38.5023 37.5935C38.8758 37.2199 38.8758 36.6143 38.5023 36.2408L36.3041 34.0427H45.441L45.4441 34.0429L45.4473 34.0427H49.6828L47.5946 35.5293C47.1642 35.8356 47.0638 36.4328 47.3701 36.8631C47.5567 37.1254 47.851 37.265 48.1501 37.265C48.3419 37.265 48.5356 37.2073 48.704 37.0875L52.9808 34.0425H58.0596L58.0613 34.0427L58.0635 34.0425H60.0554C60.4577 34.0425 60.8366 34.1993 61.1202 34.482C61.4048 34.7673 61.5615 35.1462 61.5615 35.5487C61.5615 36.1245 61.5251 36.6918 61.4547 37.2489L54.4316 42.3129C54.0033 42.6219 53.9063 43.2197 54.2152 43.6483C54.4023 43.9076 54.695 44.0455 54.9919 44.0455C55.1857 44.0455 55.3814 43.9867 55.5506 43.8647L60.771 40.1007C59.728 43.003 57.7176 45.4475 55.1303 47.0439L44.4636 36.3773C44.0899 36.0038 43.4844 36.0038 43.1108 36.3773C42.7373 36.7509 42.7373 37.3564 43.1108 37.73L53.3489 47.968C51.9625 48.5603 50.4576 48.9265 48.8805 49.021L44.7106 44.8513C44.3372 44.4779 43.7315 44.4777 43.358 44.8514C42.9845 45.225 42.9845 45.8305 43.3581 46.2041L46.2006 49.0464H36.8369L35.3022 47.5119C34.9286 47.1384 34.3231 47.1384 33.9495 47.5119C33.576 47.8855 33.576 48.4911 33.9495 48.8646L34.1314 49.0464H30.6117C30.0833 49.0464 29.6552 49.4746 29.6552 50.0029C29.6552 50.5313 30.0833 50.9594 30.6117 50.9594H36.0435L38.2008 53.1167C38.3876 53.3034 38.6325 53.3968 38.8773 53.3968C39.1219 53.3968 39.3668 53.3034 39.5536 53.1167C39.9272 52.7431 39.9272 52.1376 39.5536 51.764L38.749 50.9594H48.0617C50.4731 50.9594 52.7566 50.4022 54.791 49.4108L55.5945 50.2143C55.7813 50.401 56.0262 50.4943 56.2709 50.4943C56.5156 50.4943 56.7605 50.401 56.9473 50.2143C57.3209 49.8406 57.3209 49.2351 56.9473 48.8615L56.5142 48.4285C59.9627 46.1581 62.4497 42.5421 63.2212 38.3334L64.9083 37.1169C65.3366 36.808 65.4335 36.2103 65.1246 35.7817ZM22.2436 34.867C22.3509 35.0312 22.4523 35.1981 22.551 35.3663L20.1299 40.1705L17.3654 35.9404L19.3002 31.7501C20.4428 32.5966 21.4451 33.6453 22.2436 34.867ZM19.0825 42.0645L13.8095 42.33C13.454 41.92 13.1234 41.4846 12.8224 41.0239C12.1934 40.0615 11.7135 39.0265 11.3829 37.9529L16.3426 37.8719L19.0825 42.0645ZM17.6653 30.7274L16.1307 34.0508L13.0806 29.3837C14.6935 29.5269 16.2507 29.9899 17.6653 30.7274ZM11.4787 30.4291L15.1056 35.9789L10.9583 36.0466C10.6958 34.174 10.8664 32.2471 11.4787 30.4291ZM10.9843 41.6949C11.0612 41.8208 11.1399 41.9461 11.2209 42.0703C11.646 42.7206 12.1212 43.3278 12.6385 43.8903C12.6763 43.9395 12.7187 43.9846 12.765 44.0255C13.6242 44.9355 14.596 45.7224 15.6509 46.37L10.6186 46.2665L8.24594 42.2983C9.12454 41.9948 10.0424 41.7907 10.9843 41.6949ZM6.47798 43.0689L8.36187 46.22L2.7852 46.1054C3.81284 44.8502 5.07017 43.8216 6.47798 43.0689ZM7.09178 51.6165C5.39754 50.7767 3.90276 49.5488 2.74732 48.0178L9.37551 48.1541L7.09178 51.6165ZM13.8882 52.8072C13.3491 52.8695 12.803 52.8965 12.2529 52.8856C11.1035 52.8618 9.97807 52.6741 8.90538 52.3413L11.6365 48.2005L16.6437 48.3035L13.8882 52.8072ZM16.4963 52.2097L18.8584 48.3491L21.7619 48.4088C21.8216 48.4143 21.8815 48.4182 21.9414 48.4229C20.502 50.1702 18.609 51.4754 16.4963 52.2097ZM21.8736 46.4979C19.6544 46.2804 17.5445 45.4575 15.7725 44.1466L20.2942 43.9188L21.981 46.5001L21.8736 46.4979ZM23.5878 45.4619L21.3393 42.0213L23.5711 37.5928C24.4348 40.128 24.4491 42.9028 23.5878 45.4619Z" fill="#253D4E"/>
<path d="M55.7375 37.4215C55.4285 36.993 54.8307 36.8964 54.4023 37.2052L51.0318 39.6356C50.6034 39.9445 50.5065 40.5422 50.8155 40.9708C51.0025 41.2301 51.2952 41.3679 51.592 41.3679C51.786 41.3679 51.9816 41.3092 52.1507 41.1871L55.5213 38.7568C55.9497 38.4479 56.0466 37.8501 55.7375 37.4215Z" fill="#253D4E"/>
</g>
<g filter="url(#filter0_d_6511_23)">
<mask id="path-14-inside-1_6511_23" fill="white">
<path d="M79.5644 51.0644L79.5553 46.8306L77.4566 50.3344H76.9274L74.8287 46.8853V51.0644H73.6973V44.6772H74.6736L77.2102 48.911L79.7013 44.6772H80.6776L80.6867 51.0644H79.5644ZM87.4674 49.5862H84.2738L83.6439 51.0644H82.4212L85.2951 44.6772H86.4637L89.3467 51.0644H88.1061L87.4674 49.5862ZM87.0748 48.6555L85.8702 45.8634L84.6748 48.6555H87.0748ZM95.251 51.0644L93.9459 49.1939C93.8906 49.2 93.8086 49.203 93.6998 49.203H92.2574V51.0644H91.0712V44.6772H93.6998C94.2531 44.6772 94.7336 44.7684 95.1413 44.9509C95.5548 45.1334 95.8713 45.395 96.0898 45.7356C96.3091 46.0763 96.4187 46.4808 96.4187 46.9492C96.4187 47.4298 96.2999 47.8434 96.063 48.1902C95.8311 48.5369 95.4971 48.7954 95.0593 48.9658L96.5284 51.0644H95.251ZM95.2233 46.9492C95.2233 46.5416 95.0894 46.2284 94.8215 46.0094C94.5536 45.7904 94.1619 45.6809 93.6445 45.6809H92.2574V48.2267H93.6445C94.1619 48.2267 94.5536 48.1172 94.8215 47.8982C95.0894 47.6731 95.2233 47.3568 95.2233 46.9492ZM99.8643 45.6809H97.7481V44.6772H103.168V45.6809H101.051V51.0644H99.8643V45.6809ZM113.195 51.1648L112.392 50.3892C111.796 50.9002 111.081 51.1557 110.248 51.1557C109.803 51.1557 109.405 51.0827 109.053 50.9367C108.699 50.7907 108.423 50.5899 108.222 50.3344C108.021 50.0728 107.921 49.7778 107.921 49.4494C107.921 49.054 108.036 48.7072 108.268 48.4092C108.499 48.105 108.876 47.8069 109.399 47.5149C109.144 47.2594 108.961 47.0222 108.852 46.8032C108.742 46.5781 108.688 46.347 108.688 46.1097C108.688 45.6596 108.855 45.2977 109.189 45.0239C109.53 44.7441 109.98 44.6042 110.54 44.6042C111.057 44.6042 111.47 44.7319 111.781 44.9874C112.091 45.2368 112.246 45.5775 112.246 46.0094C112.246 46.3379 112.142 46.6299 111.936 46.8853C111.736 47.1408 111.404 47.3993 110.941 47.6609L112.319 48.9749C112.471 48.6768 112.59 48.3179 112.675 47.8982L113.596 48.1993C113.475 48.765 113.283 49.2516 113.021 49.6592L113.825 50.4257L113.195 51.1648ZM110.54 45.4163C110.291 45.4163 110.093 45.4801 109.947 45.6079C109.801 45.7295 109.728 45.8908 109.728 46.0915C109.728 46.2375 109.767 46.3774 109.846 46.5112C109.926 46.639 110.077 46.8154 110.302 47.0405C110.667 46.8397 110.92 46.6663 111.06 46.5204C111.206 46.3683 111.279 46.204 111.279 46.0276C111.279 45.839 111.212 45.69 111.078 45.5805C110.95 45.471 110.771 45.4163 110.54 45.4163ZM110.33 50.225C110.859 50.225 111.321 50.0637 111.717 49.7413L110.029 48.1263C109.664 48.327 109.405 48.5217 109.253 48.7103C109.107 48.8928 109.034 49.0996 109.034 49.3307C109.034 49.5984 109.153 49.8143 109.39 49.9786C109.628 50.1428 109.941 50.225 110.33 50.225ZM123.556 47.7978H124.677V50.3436C124.349 50.6052 123.966 50.8059 123.528 50.9458C123.09 51.0857 122.64 51.1557 122.178 51.1557C121.527 51.1557 120.94 51.0158 120.417 50.7359C119.893 50.4501 119.483 50.0577 119.185 49.5589C118.886 49.06 118.737 48.4974 118.737 47.8708C118.737 47.2442 118.886 46.6816 119.185 46.1827C119.483 45.6839 119.893 45.2946 120.417 45.0148C120.946 44.7289 121.539 44.5859 122.196 44.5859C122.731 44.5859 123.218 44.6742 123.656 44.8505C124.094 45.0269 124.461 45.2855 124.759 45.6261L124.012 46.3561C123.525 45.8695 122.938 45.6261 122.251 45.6261C121.8 45.6261 121.399 45.7204 121.046 45.909C120.699 46.0976 120.426 46.3622 120.225 46.7028C120.031 47.0435 119.933 47.4328 119.933 47.8708C119.933 48.2966 120.031 48.6799 120.225 49.0205C120.426 49.3611 120.699 49.6288 121.046 49.8235C121.399 50.0181 121.798 50.1155 122.241 50.1155C122.74 50.1155 123.178 50.006 123.556 49.787V47.7978ZM131.333 51.0644L130.029 49.1939C129.974 49.2 129.892 49.203 129.782 49.203H128.341V51.0644H127.154V44.6772H129.782C130.336 44.6772 130.817 44.7684 131.225 44.9509C131.638 45.1334 131.955 45.395 132.173 45.7356C132.392 46.0763 132.502 46.4808 132.502 46.9492C132.502 47.4298 132.383 47.8434 132.146 48.1902C131.914 48.5369 131.58 48.7954 131.143 48.9658L132.611 51.0644H131.333ZM131.307 46.9492C131.307 46.5416 131.173 46.2284 130.905 46.0094C130.637 45.7904 130.245 45.6809 129.728 45.6809H128.341V48.2267H129.728C130.245 48.2267 130.637 48.1172 130.905 47.8982C131.173 47.6731 131.307 47.3568 131.307 46.9492ZM137.725 51.1557C137.074 51.1557 136.488 51.0158 135.964 50.7359C135.441 50.4501 135.03 50.0577 134.732 49.5589C134.434 49.054 134.285 48.4913 134.285 47.8708C134.285 47.2503 134.434 46.6907 134.732 46.1919C135.03 45.687 135.441 45.2946 135.964 45.0148C136.488 44.7289 137.074 44.5859 137.725 44.5859C138.376 44.5859 138.963 44.7289 139.486 45.0148C140.009 45.2946 140.42 45.6839 140.718 46.1827C141.016 46.6816 141.165 47.2442 141.165 47.8708C141.165 48.4974 141.016 49.06 140.718 49.5589C140.42 50.0577 140.009 50.4501 139.486 50.7359C138.963 51.0158 138.376 51.1557 137.725 51.1557ZM137.725 50.1155C138.151 50.1155 138.534 50.0212 138.875 49.8326C139.216 49.638 139.483 49.3703 139.678 49.0296C139.872 48.6829 139.97 48.2966 139.97 47.8708C139.97 47.445 139.872 47.0617 139.678 46.7211C139.483 46.3744 139.216 46.1067 138.875 45.9181C138.534 45.7235 138.151 45.6261 137.725 45.6261C137.3 45.6261 136.916 45.7235 136.575 45.9181C136.235 46.1067 135.967 46.3744 135.773 46.7211C135.578 47.0617 135.48 47.445 135.48 47.8708C135.48 48.2966 135.578 48.6829 135.773 49.0296C135.967 49.3703 136.235 49.638 136.575 49.8326C136.916 50.0212 137.3 50.1155 137.725 50.1155ZM146.291 51.1557C145.646 51.1557 145.062 51.0158 144.539 50.7359C144.022 50.4501 143.615 50.0577 143.317 49.5589C143.025 49.06 142.879 48.4974 142.879 47.8708C142.879 47.2442 143.028 46.6816 143.326 46.1827C143.624 45.6839 144.032 45.2946 144.548 45.0148C145.071 44.7289 145.656 44.5859 146.3 44.5859C146.823 44.5859 147.301 44.6772 147.733 44.8597C148.165 45.0422 148.53 45.3068 148.828 45.6535L148.062 46.3744C147.6 45.8755 147.03 45.6261 146.356 45.6261C145.917 45.6261 145.525 45.7235 145.178 45.9181C144.831 46.1067 144.561 46.3713 144.366 46.712C144.171 47.0526 144.074 47.4389 144.074 47.8708C144.074 48.3027 144.171 48.689 144.366 49.0296C144.561 49.3703 144.831 49.638 145.178 49.8326C145.525 50.0212 145.917 50.1155 146.356 50.1155C147.03 50.1155 147.6 49.863 148.062 49.3581L148.828 50.0881C148.53 50.4348 148.162 50.6994 147.724 50.8819C147.292 51.0644 146.814 51.1557 146.291 51.1557ZM155.668 50.0698V51.0644H150.877V44.6772H155.54V45.6718H152.063V47.3324H155.147V48.3088H152.063V50.0698H155.668ZM162.081 51.0644L160.777 49.1939C160.721 49.2 160.639 49.203 160.53 49.203H159.088V51.0644H157.902V44.6772H160.53C161.084 44.6772 161.564 44.7684 161.972 44.9509C162.386 45.1334 162.702 45.395 162.921 45.7356C163.14 46.0763 163.249 46.4808 163.249 46.9492C163.249 47.4298 163.131 47.8434 162.894 48.1902C162.662 48.5369 162.328 48.7954 161.89 48.9658L163.358 51.0644H162.081ZM162.054 46.9492C162.054 46.5416 161.92 46.2284 161.652 46.0094C161.384 45.7904 160.993 45.6809 160.475 45.6809H159.088V48.2267H160.475C160.993 48.2267 161.384 48.1172 161.652 47.8982C161.92 47.6731 162.054 47.3568 162.054 46.9492ZM168.155 48.8106V51.0644H166.969V48.8289L164.46 44.6772H165.728L167.598 47.7887L169.488 44.6772H170.656L168.155 48.8106Z"/>
</mask>
<path d="M79.5644 51.0644L79.5553 46.8306L77.4566 50.3344H76.9274L74.8287 46.8853V51.0644H73.6973V44.6772H74.6736L77.2102 48.911L79.7013 44.6772H80.6776L80.6867 51.0644H79.5644ZM87.4674 49.5862H84.2738L83.6439 51.0644H82.4212L85.2951 44.6772H86.4637L89.3467 51.0644H88.1061L87.4674 49.5862ZM87.0748 48.6555L85.8702 45.8634L84.6748 48.6555H87.0748ZM95.251 51.0644L93.9459 49.1939C93.8906 49.2 93.8086 49.203 93.6998 49.203H92.2574V51.0644H91.0712V44.6772H93.6998C94.2531 44.6772 94.7336 44.7684 95.1413 44.9509C95.5548 45.1334 95.8713 45.395 96.0898 45.7356C96.3091 46.0763 96.4187 46.4808 96.4187 46.9492C96.4187 47.4298 96.2999 47.8434 96.063 48.1902C95.8311 48.5369 95.4971 48.7954 95.0593 48.9658L96.5284 51.0644H95.251ZM95.2233 46.9492C95.2233 46.5416 95.0894 46.2284 94.8215 46.0094C94.5536 45.7904 94.1619 45.6809 93.6445 45.6809H92.2574V48.2267H93.6445C94.1619 48.2267 94.5536 48.1172 94.8215 47.8982C95.0894 47.6731 95.2233 47.3568 95.2233 46.9492ZM99.8643 45.6809H97.7481V44.6772H103.168V45.6809H101.051V51.0644H99.8643V45.6809ZM113.195 51.1648L112.392 50.3892C111.796 50.9002 111.081 51.1557 110.248 51.1557C109.803 51.1557 109.405 51.0827 109.053 50.9367C108.699 50.7907 108.423 50.5899 108.222 50.3344C108.021 50.0728 107.921 49.7778 107.921 49.4494C107.921 49.054 108.036 48.7072 108.268 48.4092C108.499 48.105 108.876 47.8069 109.399 47.5149C109.144 47.2594 108.961 47.0222 108.852 46.8032C108.742 46.5781 108.688 46.347 108.688 46.1097C108.688 45.6596 108.855 45.2977 109.189 45.0239C109.53 44.7441 109.98 44.6042 110.54 44.6042C111.057 44.6042 111.47 44.7319 111.781 44.9874C112.091 45.2368 112.246 45.5775 112.246 46.0094C112.246 46.3379 112.142 46.6299 111.936 46.8853C111.736 47.1408 111.404 47.3993 110.941 47.6609L112.319 48.9749C112.471 48.6768 112.59 48.3179 112.675 47.8982L113.596 48.1993C113.475 48.765 113.283 49.2516 113.021 49.6592L113.825 50.4257L113.195 51.1648ZM110.54 45.4163C110.291 45.4163 110.093 45.4801 109.947 45.6079C109.801 45.7295 109.728 45.8908 109.728 46.0915C109.728 46.2375 109.767 46.3774 109.846 46.5112C109.926 46.639 110.077 46.8154 110.302 47.0405C110.667 46.8397 110.92 46.6663 111.06 46.5204C111.206 46.3683 111.279 46.204 111.279 46.0276C111.279 45.839 111.212 45.69 111.078 45.5805C110.95 45.471 110.771 45.4163 110.54 45.4163ZM110.33 50.225C110.859 50.225 111.321 50.0637 111.717 49.7413L110.029 48.1263C109.664 48.327 109.405 48.5217 109.253 48.7103C109.107 48.8928 109.034 49.0996 109.034 49.3307C109.034 49.5984 109.153 49.8143 109.39 49.9786C109.628 50.1428 109.941 50.225 110.33 50.225ZM123.556 47.7978H124.677V50.3436C124.349 50.6052 123.966 50.8059 123.528 50.9458C123.09 51.0857 122.64 51.1557 122.178 51.1557C121.527 51.1557 120.94 51.0158 120.417 50.7359C119.893 50.4501 119.483 50.0577 119.185 49.5589C118.886 49.06 118.737 48.4974 118.737 47.8708C118.737 47.2442 118.886 46.6816 119.185 46.1827C119.483 45.6839 119.893 45.2946 120.417 45.0148C120.946 44.7289 121.539 44.5859 122.196 44.5859C122.731 44.5859 123.218 44.6742 123.656 44.8505C124.094 45.0269 124.461 45.2855 124.759 45.6261L124.012 46.3561C123.525 45.8695 122.938 45.6261 122.251 45.6261C121.8 45.6261 121.399 45.7204 121.046 45.909C120.699 46.0976 120.426 46.3622 120.225 46.7028C120.031 47.0435 119.933 47.4328 119.933 47.8708C119.933 48.2966 120.031 48.6799 120.225 49.0205C120.426 49.3611 120.699 49.6288 121.046 49.8235C121.399 50.0181 121.798 50.1155 122.241 50.1155C122.74 50.1155 123.178 50.006 123.556 49.787V47.7978ZM131.333 51.0644L130.029 49.1939C129.974 49.2 129.892 49.203 129.782 49.203H128.341V51.0644H127.154V44.6772H129.782C130.336 44.6772 130.817 44.7684 131.225 44.9509C131.638 45.1334 131.955 45.395 132.173 45.7356C132.392 46.0763 132.502 46.4808 132.502 46.9492C132.502 47.4298 132.383 47.8434 132.146 48.1902C131.914 48.5369 131.58 48.7954 131.143 48.9658L132.611 51.0644H131.333ZM131.307 46.9492C131.307 46.5416 131.173 46.2284 130.905 46.0094C130.637 45.7904 130.245 45.6809 129.728 45.6809H128.341V48.2267H129.728C130.245 48.2267 130.637 48.1172 130.905 47.8982C131.173 47.6731 131.307 47.3568 131.307 46.9492ZM137.725 51.1557C137.074 51.1557 136.488 51.0158 135.964 50.7359C135.441 50.4501 135.03 50.0577 134.732 49.5589C134.434 49.054 134.285 48.4913 134.285 47.8708C134.285 47.2503 134.434 46.6907 134.732 46.1919C135.03 45.687 135.441 45.2946 135.964 45.0148C136.488 44.7289 137.074 44.5859 137.725 44.5859C138.376 44.5859 138.963 44.7289 139.486 45.0148C140.009 45.2946 140.42 45.6839 140.718 46.1827C141.016 46.6816 141.165 47.2442 141.165 47.8708C141.165 48.4974 141.016 49.06 140.718 49.5589C140.42 50.0577 140.009 50.4501 139.486 50.7359C138.963 51.0158 138.376 51.1557 137.725 51.1557ZM137.725 50.1155C138.151 50.1155 138.534 50.0212 138.875 49.8326C139.216 49.638 139.483 49.3703 139.678 49.0296C139.872 48.6829 139.97 48.2966 139.97 47.8708C139.97 47.445 139.872 47.0617 139.678 46.7211C139.483 46.3744 139.216 46.1067 138.875 45.9181C138.534 45.7235 138.151 45.6261 137.725 45.6261C137.3 45.6261 136.916 45.7235 136.575 45.9181C136.235 46.1067 135.967 46.3744 135.773 46.7211C135.578 47.0617 135.48 47.445 135.48 47.8708C135.48 48.2966 135.578 48.6829 135.773 49.0296C135.967 49.3703 136.235 49.638 136.575 49.8326C136.916 50.0212 137.3 50.1155 137.725 50.1155ZM146.291 51.1557C145.646 51.1557 145.062 51.0158 144.539 50.7359C144.022 50.4501 143.615 50.0577 143.317 49.5589C143.025 49.06 142.879 48.4974 142.879 47.8708C142.879 47.2442 143.028 46.6816 143.326 46.1827C143.624 45.6839 144.032 45.2946 144.548 45.0148C145.071 44.7289 145.656 44.5859 146.3 44.5859C146.823 44.5859 147.301 44.6772 147.733 44.8597C148.165 45.0422 148.53 45.3068 148.828 45.6535L148.062 46.3744C147.6 45.8755 147.03 45.6261 146.356 45.6261C145.917 45.6261 145.525 45.7235 145.178 45.9181C144.831 46.1067 144.561 46.3713 144.366 46.712C144.171 47.0526 144.074 47.4389 144.074 47.8708C144.074 48.3027 144.171 48.689 144.366 49.0296C144.561 49.3703 144.831 49.638 145.178 49.8326C145.525 50.0212 145.917 50.1155 146.356 50.1155C147.03 50.1155 147.6 49.863 148.062 49.3581L148.828 50.0881C148.53 50.4348 148.162 50.6994 147.724 50.8819C147.292 51.0644 146.814 51.1557 146.291 51.1557ZM155.668 50.0698V51.0644H150.877V44.6772H155.54V45.6718H152.063V47.3324H155.147V48.3088H152.063V50.0698H155.668ZM162.081 51.0644L160.777 49.1939C160.721 49.2 160.639 49.203 160.53 49.203H159.088V51.0644H157.902V44.6772H160.53C161.084 44.6772 161.564 44.7684 161.972 44.9509C162.386 45.1334 162.702 45.395 162.921 45.7356C163.14 46.0763 163.249 46.4808 163.249 46.9492C163.249 47.4298 163.131 47.8434 162.894 48.1902C162.662 48.5369 162.328 48.7954 161.89 48.9658L163.358 51.0644H162.081ZM162.054 46.9492C162.054 46.5416 161.92 46.2284 161.652 46.0094C161.384 45.7904 160.993 45.6809 160.475 45.6809H159.088V48.2267H160.475C160.993 48.2267 161.384 48.1172 161.652 47.8982C161.92 47.6731 162.054 47.3568 162.054 46.9492ZM168.155 48.8106V51.0644H166.969V48.8289L164.46 44.6772H165.728L167.598 47.7887L169.488 44.6772H170.656L168.155 48.8106Z" fill="#253D4E"/>
<path d="M79.5644 51.0644L79.5553 46.8306L77.4566 50.3344H76.9274L74.8287 46.8853V51.0644H73.6973V44.6772H74.6736L77.2102 48.911L79.7013 44.6772H80.6776L80.6867 51.0644H79.5644ZM87.4674 49.5862H84.2738L83.6439 51.0644H82.4212L85.2951 44.6772H86.4637L89.3467 51.0644H88.1061L87.4674 49.5862ZM87.0748 48.6555L85.8702 45.8634L84.6748 48.6555H87.0748ZM95.251 51.0644L93.9459 49.1939C93.8906 49.2 93.8086 49.203 93.6998 49.203H92.2574V51.0644H91.0712V44.6772H93.6998C94.2531 44.6772 94.7336 44.7684 95.1413 44.9509C95.5548 45.1334 95.8713 45.395 96.0898 45.7356C96.3091 46.0763 96.4187 46.4808 96.4187 46.9492C96.4187 47.4298 96.2999 47.8434 96.063 48.1902C95.8311 48.5369 95.4971 48.7954 95.0593 48.9658L96.5284 51.0644H95.251ZM95.2233 46.9492C95.2233 46.5416 95.0894 46.2284 94.8215 46.0094C94.5536 45.7904 94.1619 45.6809 93.6445 45.6809H92.2574V48.2267H93.6445C94.1619 48.2267 94.5536 48.1172 94.8215 47.8982C95.0894 47.6731 95.2233 47.3568 95.2233 46.9492ZM99.8643 45.6809H97.7481V44.6772H103.168V45.6809H101.051V51.0644H99.8643V45.6809ZM113.195 51.1648L112.392 50.3892C111.796 50.9002 111.081 51.1557 110.248 51.1557C109.803 51.1557 109.405 51.0827 109.053 50.9367C108.699 50.7907 108.423 50.5899 108.222 50.3344C108.021 50.0728 107.921 49.7778 107.921 49.4494C107.921 49.054 108.036 48.7072 108.268 48.4092C108.499 48.105 108.876 47.8069 109.399 47.5149C109.144 47.2594 108.961 47.0222 108.852 46.8032C108.742 46.5781 108.688 46.347 108.688 46.1097C108.688 45.6596 108.855 45.2977 109.189 45.0239C109.53 44.7441 109.98 44.6042 110.54 44.6042C111.057 44.6042 111.47 44.7319 111.781 44.9874C112.091 45.2368 112.246 45.5775 112.246 46.0094C112.246 46.3379 112.142 46.6299 111.936 46.8853C111.736 47.1408 111.404 47.3993 110.941 47.6609L112.319 48.9749C112.471 48.6768 112.59 48.3179 112.675 47.8982L113.596 48.1993C113.475 48.765 113.283 49.2516 113.021 49.6592L113.825 50.4257L113.195 51.1648ZM110.54 45.4163C110.291 45.4163 110.093 45.4801 109.947 45.6079C109.801 45.7295 109.728 45.8908 109.728 46.0915C109.728 46.2375 109.767 46.3774 109.846 46.5112C109.926 46.639 110.077 46.8154 110.302 47.0405C110.667 46.8397 110.92 46.6663 111.06 46.5204C111.206 46.3683 111.279 46.204 111.279 46.0276C111.279 45.839 111.212 45.69 111.078 45.5805C110.95 45.471 110.771 45.4163 110.54 45.4163ZM110.33 50.225C110.859 50.225 111.321 50.0637 111.717 49.7413L110.029 48.1263C109.664 48.327 109.405 48.5217 109.253 48.7103C109.107 48.8928 109.034 49.0996 109.034 49.3307C109.034 49.5984 109.153 49.8143 109.39 49.9786C109.628 50.1428 109.941 50.225 110.33 50.225ZM123.556 47.7978H124.677V50.3436C124.349 50.6052 123.966 50.8059 123.528 50.9458C123.09 51.0857 122.64 51.1557 122.178 51.1557C121.527 51.1557 120.94 51.0158 120.417 50.7359C119.893 50.4501 119.483 50.0577 119.185 49.5589C118.886 49.06 118.737 48.4974 118.737 47.8708C118.737 47.2442 118.886 46.6816 119.185 46.1827C119.483 45.6839 119.893 45.2946 120.417 45.0148C120.946 44.7289 121.539 44.5859 122.196 44.5859C122.731 44.5859 123.218 44.6742 123.656 44.8505C124.094 45.0269 124.461 45.2855 124.759 45.6261L124.012 46.3561C123.525 45.8695 122.938 45.6261 122.251 45.6261C121.8 45.6261 121.399 45.7204 121.046 45.909C120.699 46.0976 120.426 46.3622 120.225 46.7028C120.031 47.0435 119.933 47.4328 119.933 47.8708C119.933 48.2966 120.031 48.6799 120.225 49.0205C120.426 49.3611 120.699 49.6288 121.046 49.8235C121.399 50.0181 121.798 50.1155 122.241 50.1155C122.74 50.1155 123.178 50.006 123.556 49.787V47.7978ZM131.333 51.0644L130.029 49.1939C129.974 49.2 129.892 49.203 129.782 49.203H128.341V51.0644H127.154V44.6772H129.782C130.336 44.6772 130.817 44.7684 131.225 44.9509C131.638 45.1334 131.955 45.395 132.173 45.7356C132.392 46.0763 132.502 46.4808 132.502 46.9492C132.502 47.4298 132.383 47.8434 132.146 48.1902C131.914 48.5369 131.58 48.7954 131.143 48.9658L132.611 51.0644H131.333ZM131.307 46.9492C131.307 46.5416 131.173 46.2284 130.905 46.0094C130.637 45.7904 130.245 45.6809 129.728 45.6809H128.341V48.2267H129.728C130.245 48.2267 130.637 48.1172 130.905 47.8982C131.173 47.6731 131.307 47.3568 131.307 46.9492ZM137.725 51.1557C137.074 51.1557 136.488 51.0158 135.964 50.7359C135.441 50.4501 135.03 50.0577 134.732 49.5589C134.434 49.054 134.285 48.4913 134.285 47.8708C134.285 47.2503 134.434 46.6907 134.732 46.1919C135.03 45.687 135.441 45.2946 135.964 45.0148C136.488 44.7289 137.074 44.5859 137.725 44.5859C138.376 44.5859 138.963 44.7289 139.486 45.0148C140.009 45.2946 140.42 45.6839 140.718 46.1827C141.016 46.6816 141.165 47.2442 141.165 47.8708C141.165 48.4974 141.016 49.06 140.718 49.5589C140.42 50.0577 140.009 50.4501 139.486 50.7359C138.963 51.0158 138.376 51.1557 137.725 51.1557ZM137.725 50.1155C138.151 50.1155 138.534 50.0212 138.875 49.8326C139.216 49.638 139.483 49.3703 139.678 49.0296C139.872 48.6829 139.97 48.2966 139.97 47.8708C139.97 47.445 139.872 47.0617 139.678 46.7211C139.483 46.3744 139.216 46.1067 138.875 45.9181C138.534 45.7235 138.151 45.6261 137.725 45.6261C137.3 45.6261 136.916 45.7235 136.575 45.9181C136.235 46.1067 135.967 46.3744 135.773 46.7211C135.578 47.0617 135.48 47.445 135.48 47.8708C135.48 48.2966 135.578 48.6829 135.773 49.0296C135.967 49.3703 136.235 49.638 136.575 49.8326C136.916 50.0212 137.3 50.1155 137.725 50.1155ZM146.291 51.1557C145.646 51.1557 145.062 51.0158 144.539 50.7359C144.022 50.4501 143.615 50.0577 143.317 49.5589C143.025 49.06 142.879 48.4974 142.879 47.8708C142.879 47.2442 143.028 46.6816 143.326 46.1827C143.624 45.6839 144.032 45.2946 144.548 45.0148C145.071 44.7289 145.656 44.5859 146.3 44.5859C146.823 44.5859 147.301 44.6772 147.733 44.8597C148.165 45.0422 148.53 45.3068 148.828 45.6535L148.062 46.3744C147.6 45.8755 147.03 45.6261 146.356 45.6261C145.917 45.6261 145.525 45.7235 145.178 45.9181C144.831 46.1067 144.561 46.3713 144.366 46.712C144.171 47.0526 144.074 47.4389 144.074 47.8708C144.074 48.3027 144.171 48.689 144.366 49.0296C144.561 49.3703 144.831 49.638 145.178 49.8326C145.525 50.0212 145.917 50.1155 146.356 50.1155C147.03 50.1155 147.6 49.863 148.062 49.3581L148.828 50.0881C148.53 50.4348 148.162 50.6994 147.724 50.8819C147.292 51.0644 146.814 51.1557 146.291 51.1557ZM155.668 50.0698V51.0644H150.877V44.6772H155.54V45.6718H152.063V47.3324H155.147V48.3088H152.063V50.0698H155.668ZM162.081 51.0644L160.777 49.1939C160.721 49.2 160.639 49.203 160.53 49.203H159.088V51.0644H157.902V44.6772H160.53C161.084 44.6772 161.564 44.7684 161.972 44.9509C162.386 45.1334 162.702 45.395 162.921 45.7356C163.14 46.0763 163.249 46.4808 163.249 46.9492C163.249 47.4298 163.131 47.8434 162.894 48.1902C162.662 48.5369 162.328 48.7954 161.89 48.9658L163.358 51.0644H162.081ZM162.054 46.9492C162.054 46.5416 161.92 46.2284 161.652 46.0094C161.384 45.7904 160.993 45.6809 160.475 45.6809H159.088V48.2267H160.475C160.993 48.2267 161.384 48.1172 161.652 47.8982C161.92 47.6731 162.054 47.3568 162.054 46.9492ZM168.155 48.8106V51.0644H166.969V48.8289L164.46 44.6772H165.728L167.598 47.7887L169.488 44.6772H170.656L168.155 48.8106Z" stroke="black" stroke-width="2" mask="url(#path-14-inside-1_6511_23)"/>
</g>
<path d="M98.4829 5.98541C99.2262 5.98541 99.8306 6.2332 100.295 6.72878C100.76 7.22435 100.992 7.84382 100.992 8.58719V35.6735C100.992 36.4788 100.713 37.1602 100.155 37.7177C99.6289 38.2443 98.9634 38.5076 98.1581 38.5076C97.7554 38.5076 97.3369 38.4456 96.9032 38.3217C96.5006 38.1669 96.1908 37.9655 95.974 37.7177L77.7152 14.5341L78.9231 13.7907V35.9058C78.9231 36.6492 78.6753 37.2686 78.1798 37.7642C77.7152 38.2598 77.0957 38.5076 76.3214 38.5076C75.578 38.5076 74.974 38.2598 74.5094 37.7642C74.0448 37.2686 73.8125 36.6492 73.8125 35.9058V8.81949C73.8125 8.01418 74.0758 7.34825 74.6023 6.8217C75.1599 6.26417 75.8413 5.98541 76.6466 5.98541C77.0802 5.98541 77.5293 6.07833 77.9939 6.26417C78.4585 6.41904 78.7992 6.66683 79.016 7.00754L96.7174 29.5872L95.9272 30.1447V8.58719C95.9272 7.84382 96.1599 7.22435 96.6245 6.72878C97.0891 6.2332 97.7085 5.98541 98.4829 5.98541ZM118.97 38.9722C116.337 38.9722 114.045 38.4301 112.094 37.3461C110.173 36.231 108.687 34.7288 107.633 32.8394C106.611 30.95 106.1 28.8129 106.1 26.4279C106.1 23.6403 106.657 21.2708 107.772 19.3195C108.918 17.3372 110.405 15.8195 112.233 14.7664C114.06 13.7133 115.996 13.1867 118.041 13.1867C119.62 13.1867 121.107 13.512 122.501 14.1624C123.926 14.8129 125.18 15.7111 126.264 16.8571C127.348 17.9722 128.2 19.273 128.819 20.7598C129.47 22.2465 129.795 23.8261 129.795 25.4987C129.764 26.2421 129.47 26.8461 128.912 27.3107C128.355 27.7753 127.704 28.0076 126.961 28.0076H109.213L107.819 23.3615H124.87L123.848 24.2907V23.0363C123.786 22.1381 123.461 21.3328 122.872 20.6204C122.315 19.908 121.602 19.3505 120.735 18.9478C119.899 18.5142 119.001 18.2974 118.041 18.2974C117.111 18.2974 116.244 18.4213 115.439 18.6691C114.633 18.9168 113.936 19.335 113.348 19.9235C112.759 20.512 112.295 21.3018 111.954 22.293C111.613 23.2841 111.443 24.5385 111.443 26.0562C111.443 27.7288 111.784 29.1536 112.465 30.3306C113.178 31.4766 114.076 32.3593 115.16 32.9788C116.275 33.5673 117.452 33.8615 118.691 33.8615C119.837 33.8615 120.75 33.7686 121.432 33.5828C122.113 33.3969 122.656 33.1801 123.058 32.9323C123.492 32.6536 123.879 32.4213 124.219 32.2354C124.777 31.9567 125.303 31.8173 125.799 31.8173C126.48 31.8173 127.038 32.0496 127.472 32.5142C127.936 32.9788 128.169 33.5208 128.169 34.1403C128.169 34.9766 127.735 35.7354 126.868 36.4169C126.063 37.0983 124.932 37.7023 123.476 38.2288C122.02 38.7244 120.518 38.9722 118.97 38.9722ZM132.986 34.6514C132.676 34.2177 132.536 33.6602 132.567 32.9788C132.598 32.2974 133.001 31.7089 133.775 31.2133C134.271 30.9036 134.797 30.7797 135.355 30.8416C135.912 30.8726 136.455 31.1514 136.981 31.6779C137.879 32.5761 138.824 33.2731 139.815 33.7686C140.806 34.2642 142.045 34.512 143.532 34.512C143.996 34.481 144.508 34.4191 145.065 34.3262C145.623 34.2023 146.103 33.9545 146.505 33.5828C146.939 33.1801 147.156 32.5761 147.156 31.7708C147.156 31.0894 146.924 30.5474 146.459 30.1447C145.995 29.7421 145.375 29.4014 144.601 29.1226C143.857 28.8438 143.021 28.5806 142.092 28.3328C141.132 28.054 140.141 27.7443 139.118 27.4036C138.127 27.0629 137.213 26.6292 136.377 26.1027C135.541 25.5452 134.859 24.8173 134.333 23.9191C133.806 23.0208 133.543 21.8903 133.543 20.5275C133.543 18.9788 133.977 17.6624 134.844 16.5783C135.711 15.4943 136.826 14.658 138.189 14.0695C139.583 13.481 141.039 13.1867 142.556 13.1867C143.517 13.1867 144.523 13.3106 145.576 13.5584C146.629 13.7752 147.636 14.1469 148.596 14.6735C149.556 15.1691 150.362 15.835 151.012 16.6713C151.353 17.1359 151.554 17.6934 151.616 18.3438C151.678 18.9943 151.384 19.5828 150.733 20.1093C150.269 20.481 149.726 20.6514 149.107 20.6204C148.487 20.5584 147.977 20.3416 147.574 19.9699C147.048 19.2885 146.335 18.7465 145.437 18.3438C144.57 17.9412 143.563 17.7399 142.417 17.7399C141.952 17.7399 141.441 17.8018 140.884 17.9257C140.357 18.0186 139.893 18.2509 139.49 18.6226C139.087 18.9633 138.886 19.5208 138.886 20.2952C138.886 21.0076 139.118 21.5806 139.583 22.0142C140.048 22.4168 140.667 22.7576 141.441 23.0363C142.247 23.2841 143.098 23.5319 143.996 23.7797C144.926 24.0275 145.871 24.3217 146.831 24.6624C147.791 25.0031 148.673 25.4522 149.479 26.0098C150.284 26.5673 150.934 27.2952 151.43 28.1934C151.926 29.0607 152.173 30.1757 152.173 31.5385C152.173 33.1182 151.709 34.4655 150.78 35.5806C149.85 36.6956 148.689 37.5474 147.295 38.1359C145.902 38.6934 144.477 38.9722 143.021 38.9722C141.194 38.9722 139.366 38.6624 137.539 38.043C135.711 37.3925 134.194 36.262 132.986 34.6514ZM157.1 14.116H168.11C168.854 14.116 169.473 14.3637 169.969 14.8593C170.464 15.3549 170.712 15.9744 170.712 16.7177C170.712 17.4301 170.464 18.0341 169.969 18.5297C169.473 18.9943 168.854 19.2266 168.11 19.2266H157.1C156.356 19.2266 155.737 18.9788 155.241 18.4832C154.746 17.9876 154.498 17.3682 154.498 16.6248C154.498 15.9124 154.746 15.3239 155.241 14.8593C155.737 14.3637 156.356 14.116 157.1 14.116ZM162.071 8.30842C162.876 8.30842 163.526 8.58718 164.022 9.14471C164.548 9.67126 164.812 10.3372 164.812 11.1425V31.8173C164.812 32.2509 164.889 32.6071 165.044 32.8859C165.23 33.1646 165.463 33.366 165.741 33.4899C166.051 33.6138 166.376 33.6757 166.717 33.6757C167.088 33.6757 167.429 33.6138 167.739 33.4899C168.048 33.335 168.405 33.2576 168.808 33.2576C169.241 33.2576 169.628 33.4589 169.969 33.8615C170.341 34.2642 170.526 34.8217 170.526 35.5341C170.526 36.4014 170.047 37.1138 169.087 37.6713C168.157 38.2288 167.15 38.5076 166.066 38.5076C165.416 38.5076 164.688 38.4611 163.883 38.3682C163.109 38.2443 162.365 37.981 161.653 37.5784C160.971 37.1447 160.398 36.4943 159.933 35.627C159.469 34.7598 159.237 33.5673 159.237 32.0496V11.1425C159.237 10.3372 159.5 9.67126 160.026 9.14471C160.584 8.58718 161.265 8.30842 162.071 8.30842Z" fill="#3BB77E"/>
</g>
</g>
</g>
<defs>
<filter id="filter0_d_6511_23" x="69.6973" y="44.5859" width="104.959" height="14.5789" filterUnits="userSpaceOnUse" color-interpolation-filters="sRGB">
<feFlood flood-opacity="0" result="BackgroundImageFix"/>
<feColorMatrix in="SourceAlpha" type="matrix" values="0 0 0 0 0 0 0 0 0 0 0 0 0 0 0 0 0 0 127 0" result="hardAlpha"/>
<feOffset dy="4"/>
<feGaussianBlur stdDeviation="2"/>
<feComposite in2="hardAlpha" operator="out"/>
<feColorMatrix type="matrix" values="0 0 0 0 0 0 0 0 0 0 0 0 0 0 0 0 0 0 0.25 0"/>
<feBlend mode="normal" in2="BackgroundImageFix" result="effect1_dropShadow_6511_23"/>
<feBlend mode="normal" in="SourceGraphic" in2="effect1_dropShadow_6511_23" result="shape"/>
</filter>
<clipPath id="clip0_6511_23">
<rect width="180" height="55" fill="white"/>
</clipPath>
<clipPath id="clip1_6511_23">
<rect width="180" height="55.25" fill="white"/>
</clipPath>
<clipPath id="clip2_6511_23">
<rect width="179.981" height="55.25" fill="white" transform="translate(0.00976562)"/>
</clipPath>
</defs>
</svg>
