<svg width="15" height="15" viewBox="0 0 15 15" fill="none" xmlns="http://www.w3.org/2000/svg">
<g clip-path="url(#clip0_6511_193)">
<path d="M14.6895 2.08665H3.16279V1.89999C3.10056 1.46443 2.90612 1.09887 2.57945 0.803319C2.25279 0.507763 1.85612 0.359985 1.38945 0.359985H0.689453V1.52665H1.38945C1.54501 1.52665 1.67723 1.57332 1.78612 1.66665C1.89501 1.75998 1.96501 1.88443 1.99612 2.03999L2.92945 9.87999C2.96056 10.3467 3.13945 10.72 3.46612 11C3.79279 11.28 4.18945 11.4355 4.65612 11.4667H12.3561V10.2533H4.65612C4.50056 10.2533 4.36834 10.2067 4.25945 10.1133C4.15056 10.02 4.08056 9.89554 4.04945 9.73999L4.00279 9.08665H13.4295L14.6895 2.08665ZM12.4495 7.91999H3.86279L3.30279 3.25332H13.2895L12.4495 7.91999ZM3.62945 13.1933C3.59834 13.5044 3.69945 13.7767 3.93279 14.01C4.16612 14.2433 4.44612 14.36 4.77279 14.36C5.09945 14.36 5.37168 14.2433 5.58945 14.01C5.80723 13.7767 5.9239 13.5044 5.93945 13.1933C5.95501 12.8822 5.84612 12.61 5.61279 12.3767C5.37945 12.1433 5.09945 12.0267 4.77279 12.0267C4.44612 12.0267 4.1739 12.1433 3.95612 12.3767C3.73834 12.61 3.62945 12.8822 3.62945 13.1933ZM9.46279 13.1933C9.43167 13.5044 9.53279 13.7767 9.76612 14.01C9.99945 14.2433 10.2795 14.36 10.6061 14.36C10.9328 14.36 11.205 14.2433 11.4228 14.01C11.6406 13.7767 11.7572 13.5044 11.7728 13.1933C11.7883 12.8822 11.6795 12.61 11.4461 12.3767C11.2128 12.1433 10.9328 12.0267 10.6061 12.0267C10.2795 12.0267 10.0072 12.1433 9.78945 12.3767C9.57168 12.61 9.46279 12.8822 9.46279 13.1933Z" fill="#3BB77E"/>
</g>
<defs>
<clipPath id="clip0_6511_193">
<rect width="14" height="14" fill="white" transform="matrix(1 0 0 -1 0.689453 14.36)"/>
</clipPath>
</defs>
</svg>
