<svg width="16" height="17" viewBox="0 0 16 17" fill="none" xmlns="http://www.w3.org/2000/svg">
<g clip-path="url(#clip0_6511_115)">
<path d="M7.36 7.80667H0V2.47333C0 1.94 0.195556 1.47778 0.586667 1.08667C0.977778 0.695555 1.45778 0.5 2.02667 0.5H7.36V7.80667ZM1.33333 6.47333H6.02667V1.83333H2.02667C1.81333 1.83333 1.64444 1.89556 1.52 2.02C1.39556 2.14444 1.33333 2.29556 1.33333 2.47333V6.47333ZM16 7.80667H8.69333V0.5H14.0267C14.56 0.5 15.0222 0.695555 15.4133 1.08667C15.8044 1.47778 16 1.95778 16 2.52667V7.80667ZM10.0267 6.47333H14.6667V2.47333C14.6667 2.29556 14.6044 2.14444 14.48 2.02C14.3556 1.89556 14.2044 1.83333 14.0267 1.83333H10.0267V6.47333ZM7.36 16.5H2.02667C1.45778 16.5 0.977778 16.3044 0.586667 15.9133C0.195556 15.5222 0 15.06 0 14.5267V9.14H7.36V16.5ZM1.33333 10.4733V14.4733C1.33333 14.6867 1.39556 14.8556 1.52 14.98C1.64444 15.1044 1.81333 15.1667 2.02667 15.1667H6.02667V10.4733H1.33333ZM14.0267 16.5H8.69333V9.14H16V14.4733C16 15.0422 15.8044 15.5222 15.4133 15.9133C15.0222 16.3044 14.5422 16.5 13.9733 16.5H14.0267ZM10.0267 15.1667H14.0267C14.2044 15.1667 14.3556 15.1044 14.48 14.98C14.6044 14.8556 14.6667 14.6867 14.6667 14.4733V10.4733H10.0267V15.1667Z" fill="white"/>
</g>
<defs>
<clipPath id="clip0_6511_115">
<rect width="16" height="16" fill="white" transform="matrix(1 0 0 -1 0 16.5)"/>
</clipPath>
</defs>
</svg>
