<svg width="13" height="13" viewBox="0 0 13 13" fill="none" xmlns="http://www.w3.org/2000/svg">
<g clip-path="url(#clip0_6511_626)">
<path d="M7 12.51L4 10.27V7.71001L0 3.19001V1.99001C0 1.59001 0.14 1.24334 0.42 0.95001C0.7 0.656676 1.05333 0.51001 1.48 0.51001H9.48C9.90667 0.51001 10.2667 0.656676 10.56 0.95001C10.8533 1.24334 11 1.60334 11 2.03001V3.19001L7 7.71001V12.51ZM5 9.75001L6 10.51V7.31001L10 2.83001V1.99001C10 1.85668 9.94667 1.74334 9.84 1.65001C9.73333 1.55668 9.61333 1.51001 9.48 1.51001H1.48C1.34667 1.51001 1.23333 1.55668 1.14 1.65001C1.04667 1.74334 1 1.85668 1 1.99001V2.83001L5 7.31001V9.75001Z" fill="white"/>
</g>
<defs>
<clipPath id="clip0_6511_626">
<rect width="12.5" height="12" fill="white" transform="matrix(1 0 0 -1 0 12.51)"/>
</clipPath>
</defs>
</svg>
