<svg width="37" height="39" viewBox="0 0 37 39" fill="none" xmlns="http://www.w3.org/2000/svg">
<g clip-path="url(#clip0_6511_151)">
<g clip-path="url(#clip1_6511_151)">
<g clip-path="url(#clip2_6511_151)">
<path d="M32.3584 20.136V18C32.3584 14.4196 30.9361 10.9858 28.4044 8.45406C25.8726 5.92232 22.4389 4.5 18.8584 4.5C15.278 4.5 11.8442 5.92232 9.31251 8.45406C6.78076 10.9858 5.35845 14.4196 5.35845 18V20.136C3.78519 20.8287 2.49765 22.0409 1.71138 23.5696C0.925111 25.0983 0.687838 26.8506 1.03928 28.5334C1.39073 30.2161 2.30956 31.727 3.64195 32.8132C4.97435 33.8994 6.63943 34.4949 8.35845 34.5H11.3584V19.5H8.35845V18C8.35845 15.2152 9.46469 12.5445 11.4338 10.5754C13.403 8.60625 16.0737 7.5 18.8584 7.5C21.6432 7.5 24.3139 8.60625 26.2831 10.5754C28.2522 12.5445 29.3584 15.2152 29.3584 18V19.5H26.3584V31.5H20.3584V34.5H29.3584C31.0775 34.4949 32.7425 33.8994 34.0749 32.8132C35.4073 31.727 36.3262 30.2161 36.6776 28.5334C37.0291 26.8506 36.7918 25.0983 36.0055 23.5696C35.2192 22.0409 33.9317 20.8287 32.3584 20.136ZM8.35845 31.5C7.16497 31.5 6.02038 31.0259 5.17647 30.182C4.33255 29.3381 3.85845 28.1935 3.85845 27C3.85845 25.8065 4.33255 24.6619 5.17647 23.818C6.02038 22.9741 7.16497 22.5 8.35845 22.5V31.5ZM29.3584 31.5V22.5C30.5519 22.5 31.6965 22.9741 32.5404 23.818C33.3843 24.6619 33.8584 25.8065 33.8584 27C33.8584 28.1935 33.3843 29.3381 32.5404 30.182C31.6965 31.0259 30.5519 31.5 29.3584 31.5Z" fill="#253D4E"/>
</g>
</g>
</g>
<defs>
<clipPath id="clip0_6511_151">
<rect width="36" height="38" fill="white" transform="translate(0.859375 0.5)"/>
</clipPath>
<clipPath id="clip1_6511_151">
<rect width="36" height="38" fill="white" transform="translate(0.859375 0.5)"/>
</clipPath>
<clipPath id="clip2_6511_151">
<rect width="36" height="36" fill="white" transform="translate(0.859375 1.5)"/>
</clipPath>
</defs>
</svg>
