<svg width="21" height="21" viewBox="0 0 21 21" fill="none" xmlns="http://www.w3.org/2000/svg">
<g clip-path="url(#clip0_6511_123)">
<g clip-path="url(#clip1_6511_123)">
<g clip-path="url(#clip2_6511_123)">
<mask id="mask0_6511_123" style="mask-type:luminance" maskUnits="userSpaceOnUse" x="0" y="0" width="21" height="21">
<path d="M20.4199 0.517151H0.419922V20.5172H20.4199V0.517151Z" fill="white"/>
</mask>
<g mask="url(#mask0_6511_123)">
<path d="M14.0869 3.91046C13.0869 3.06296 12.0569 2.18379 11.0144 1.14463L10.4202 0.554626L9.83692 1.14546C7.96025 3.02713 7.07358 5.91629 6.68858 7.64963C6.39389 7.19288 6.17522 6.69137 6.04108 6.16463L5.68858 4.80379L4.66358 5.76713C2.86775 7.45296 1.67025 9.12546 1.67025 11.8038C1.65348 13.7357 2.28268 15.6178 3.45793 17.1512C4.63317 18.6845 6.28706 19.7813 8.15692 20.2672C8.72031 20.4042 9.29534 20.4879 9.87442 20.5172C10.0555 20.5401 10.2377 20.552 10.4202 20.553C10.516 20.553 10.6094 20.5447 10.7027 20.5388C12.9728 20.4705 15.127 19.5203 16.7079 17.8897C18.2888 16.2591 19.1721 14.0766 19.1702 11.8055C19.1702 8.22713 16.8144 6.22713 14.0869 3.91046ZM10.5869 18.8722C10.5035 18.8722 10.4202 18.8805 10.3319 18.8797C9.58185 18.8567 8.87007 18.5431 8.34696 18.0051C7.82386 17.4671 7.53039 16.7467 7.52858 15.9963C7.52858 14.9397 8.09525 14.413 9.37775 13.3213C9.70108 13.0463 10.0527 12.7472 10.4227 12.4047C10.7469 12.6988 11.0619 12.9655 11.3527 13.213C12.641 14.3063 13.3135 14.9272 13.3135 15.9938C13.3121 16.7309 13.029 17.4396 12.5221 17.9747C12.0151 18.5098 11.3228 18.8309 10.5869 18.8722ZM14.7702 17.3963L14.7535 17.408C14.9031 16.9523 14.9796 16.4759 14.9802 15.9963C14.9802 14.1088 13.7419 13.0572 12.4319 11.9447C11.9677 11.5513 11.4885 11.1447 11.0102 10.6663L10.4202 10.0772L9.83108 10.6663C9.29108 11.2055 8.76275 11.6555 8.29691 12.0522C6.99025 13.1638 5.86108 14.1247 5.86108 15.9963C5.86286 16.4965 5.94733 16.9929 6.11108 17.4655C5.24363 16.7994 4.54189 15.9418 4.06066 14.9597C3.57943 13.9776 3.33173 12.8975 3.33692 11.8038C3.32321 10.3415 3.8892 8.93323 4.91108 7.88713C5.0871 8.24423 5.29577 8.58429 5.53442 8.90296C5.70872 9.13816 5.94803 9.31722 6.22286 9.41806C6.49769 9.5189 6.79602 9.53711 7.08108 9.47046C7.37107 9.4059 7.63633 9.25918 7.84514 9.04786C8.05396 8.83653 8.19749 8.56953 8.25858 8.27879C8.60751 6.3635 9.36218 4.54502 10.4719 2.94546C11.351 3.77879 12.2219 4.51629 13.0077 5.18379C15.6177 7.40046 17.5077 9.00213 17.5077 11.8088C17.5097 12.8877 17.2639 13.9526 16.7891 14.9214C16.3143 15.8902 15.6241 16.7369 14.7702 17.3963Z" fill="#3BB77E"/>
</g>
</g>
</g>
</g>
<defs>
<clipPath id="clip0_6511_123">
<rect width="20" height="21" fill="white" transform="translate(0.419922)"/>
</clipPath>
<clipPath id="clip1_6511_123">
<rect width="20" height="21" fill="white" transform="translate(0.419922)"/>
</clipPath>
<clipPath id="clip2_6511_123">
<rect width="20" height="21" fill="white" transform="translate(0.419922)"/>
</clipPath>
</defs>
</svg>
