<svg width="116" height="87" viewBox="0 0 116 87" fill="none" xmlns="http://www.w3.org/2000/svg">
<g clip-path="url(#clip0_6511_666)">
<g clip-path="url(#clip1_6511_666)">
<g clip-path="url(#clip2_6511_666)">
<path d="M28 31L27 25.5V20.5C27.1667 19.3333 27.6 17 28 17C28.4 17 31 16 33 15.5L37 15C38 15 38.5 15 43.5 14C43.8922 13.9216 46.5 13.5 47.5 13.5L46 11.5L48 13.5L50 15.5L50.5 17C49.8333 17.1667 48.3 17.5 47.5 17.5H43.5L41.5 18.5V20C41.5 20.4 41.1667 23.8333 41 25.5L40.5 30.5L38.5 31H29H28Z" fill="#FDC040"/>
<path d="M65 17.5001L67 15.0001L73.5 10.5001L81 7.50009C83.3333 6.83343 88.6 5.80009 91 7.00009C94 8.50009 94.5 9.00009 97 13.5001C96.8333 17.0001 96.2 24.3001 95 25.5001L92.5 30.0001L91 31.0001H83.5H72.5H69V27.5001C69 27.0001 68.5 23.5001 68.5 23.0001V20.0001L68 18.0001L67 17.5001H65Z" fill="#FDC040"/>
<path d="M75.4362 13.9526C74.7405 14.6483 74.3574 15.5732 74.3574 16.557C74.3574 17.5407 74.7405 18.4656 75.436 19.1613L83.9499 27.6752C84.6456 28.3708 85.5704 28.7538 86.5541 28.7538C87.5379 28.7538 88.4627 28.3707 89.1582 27.6752C89.8539 26.9795 90.237 26.0546 90.237 25.0709C90.237 24.0871 89.8539 23.1622 89.1584 22.4665L80.6445 13.9525C79.2086 12.5166 76.8718 12.517 75.4362 13.9526ZM87.5011 24.124C87.754 24.3768 87.8933 24.7132 87.8933 25.0709C87.8933 25.4285 87.754 25.7648 87.501 26.0178C87.2482 26.2707 86.9117 26.41 86.5541 26.41C86.1964 26.41 85.8601 26.2707 85.6072 26.0178L77.0932 17.5037C76.8404 17.2509 76.701 16.9145 76.701 16.5568C76.701 16.1991 76.8404 15.8629 77.0934 15.6099C77.3544 15.3488 77.6972 15.2183 78.0403 15.2183C78.3831 15.2183 78.7263 15.3488 78.9872 15.6099L87.5011 24.124Z" fill="#3BB77E"/>
<path d="M97.7151 35.5274C97.2251 33.1065 95.4773 31.1647 93.2416 30.3405C98.7858 21.0909 99.5545 12.429 95.1191 7.99343C93.1734 6.04789 90.3554 5.05176 86.9639 5.11426C86.3168 5.12614 85.8018 5.66038 85.8137 6.30743C85.8254 6.9473 86.3478 7.45794 86.985 7.45794C86.9923 7.45794 86.9997 7.45794 87.007 7.45779C89.7817 7.40638 91.956 8.14484 93.4618 9.65068C95.7905 11.9793 95.8533 15.5174 95.4961 18.0755C94.9908 21.6931 93.3541 25.7728 90.7581 29.9089C83.999 29.78 77.2107 29.6909 70.4114 29.6422C70.3672 25.6508 70.1203 21.6108 69.6714 17.6142C69.61 17.0686 69.1781 16.6386 68.6321 16.5798C68.2826 16.5423 67.9326 16.5089 67.5829 16.4742C72.5301 12.2907 77.8192 9.34395 82.6878 8.08781C83.3146 7.92609 83.6914 7.287 83.5297 6.66026C83.3681 6.03352 82.7286 5.65647 82.1022 5.81835C80.2365 6.29978 78.3176 7.0098 76.3834 7.92499C76.7601 6.28696 76.9396 4.3233 76.2205 2.85809C75.7874 1.97508 75.0702 1.37303 74.1467 1.11693C72.7784 0.737852 70.6528 0.936922 68.2913 4.03938C68.1771 4.18954 68.0666 4.3408 67.9604 4.49127C67.9476 4.44674 67.9346 4.40236 67.9212 4.35783C67.4571 2.81371 66.2439 0.223145 63.3298 0.223145C62.3177 0.223145 61.4353 0.626597 60.7775 1.38975C59.9188 2.38619 59.5432 3.93391 59.4084 5.47646C58.3828 4.12766 57.1405 3.04356 55.7967 3.04356C54.9237 3.04356 54.1275 3.48827 53.5552 4.2958C52.0473 6.42306 52.0254 11.0332 53.4261 15.8634C53.0753 15.8678 52.7247 15.8757 52.374 15.8831C50.078 13.2039 47.3026 11.3601 46.0886 10.6223V8.05343C46.6388 7.95702 47.0571 7.4781 47.0571 6.90027V3.59155C47.0571 1.80836 45.6064 0.357681 43.8232 0.357681H36.5358C34.7526 0.357681 33.3019 1.80836 33.3019 3.59155V6.90027C33.3019 7.4781 33.7205 7.95702 34.2707 8.05343L34.2698 10.6218C32.6875 11.5828 28.4608 14.4152 26.0952 18.528C25.6127 19.3634 25.3893 20.3262 25.4497 21.3145C25.5632 23.1157 25.8449 26.6174 26.4573 29.8873C25.9774 29.8961 25.4971 29.9041 25.0175 29.9133C21.7624 29.9747 18.9308 32.3359 18.2848 35.5269C17.9051 37.3965 17.9051 39.2925 18.2846 41.1612C18.7587 43.5066 20.4202 45.4423 22.6146 46.2969C22.7434 48.6824 22.9639 52.075 23.3248 55.9308C22.3575 58.6707 21.4099 61.4116 20.4908 64.1469C19.7 66.5031 20.7588 69.118 22.9551 70.2302C23.7908 70.652 24.6694 70.9793 25.5687 71.2068C26.4092 73.5902 27.9092 75.6464 29.9418 77.1832C32.1862 78.8801 34.8607 79.777 37.6761 79.777H78.3241C81.1395 79.777 83.8139 78.8801 86.0584 77.1832C88.0911 75.6462 89.5912 73.5899 90.4317 71.2062C91.3352 70.9767 92.2136 70.649 93.0455 70.2285C95.2423 69.1183 96.3014 66.5031 95.5092 64.1453C94.5893 61.4084 93.6421 58.6676 92.6755 55.9297C93.0363 52.0741 93.2568 48.6816 93.3856 46.2962C95.5825 45.4396 97.2419 43.505 97.7152 41.1623C98.0948 39.2924 98.0948 37.3964 97.7151 35.5274ZM67.4433 18.8135C67.8184 22.4121 68.0268 26.0403 68.0677 29.6284C59.3752 29.578 50.6685 29.5922 41.9847 29.6725C42.0246 26.0705 42.2332 22.4274 42.6096 18.8133C50.8537 17.9908 59.1988 17.9908 67.4433 18.8135ZM55.4673 5.65116C55.5526 5.53084 55.679 5.3874 55.7967 5.3874C56.6404 5.3874 58.4102 7.79467 59.6688 10.6538C59.876 11.1604 60.4098 11.4582 60.9536 11.364C61.5152 11.2665 61.9252 10.7793 61.9252 10.2093C61.9252 10.138 61.9184 10.0666 61.9053 9.99632C61.3195 6.03633 61.9706 3.59546 62.5532 2.91965C62.7663 2.6723 62.9986 2.56682 63.3299 2.56682C66.0316 2.56682 66.122 7.94234 66.1222 7.99515C66.1222 8.54908 66.5102 9.02691 67.0521 9.14129C67.5949 9.25582 68.1424 8.97472 68.3663 8.46798C69.2042 6.57275 71.5641 2.83387 73.5201 3.37576C73.7986 3.45295 73.9769 3.60702 74.1159 3.89078C74.6145 4.90676 74.3477 7.15387 73.4747 9.44989C70.3753 11.2316 67.2841 13.5108 64.3528 16.1964C61.5323 15.9896 58.7036 15.8768 55.8742 15.8581C54.2413 10.7388 54.6238 6.8412 55.4673 5.65116ZM43.7448 10.1227H36.6139L36.6147 8.07218H43.745L43.7448 10.1227ZM36.5358 2.70136H43.8232C44.314 2.70136 44.7133 3.10059 44.7133 3.59139V5.72788H35.6458V3.59155C35.6458 3.10075 36.045 2.70136 36.5358 2.70136ZM28.768 29.493C28.1738 26.3374 27.8995 22.9221 27.7891 21.1694C27.757 20.644 27.8731 20.136 28.1259 19.6984C30.3612 15.812 34.6813 13.0992 35.7548 12.4664H44.6036C45.2885 12.8695 47.2985 14.121 49.2444 15.986C46.6302 16.1045 44.0204 16.3007 41.4213 16.58C40.8752 16.6386 40.4431 17.0686 40.3819 17.6144C39.9311 21.6295 39.684 25.6877 39.6414 29.6962C36.0431 29.7345 32.4491 29.783 28.8627 29.8437C28.8242 29.7294 28.7908 29.6128 28.768 29.493ZM24.9885 46.7744C24.9983 46.7747 25.008 46.7756 25.0179 46.7758L25.0554 46.7764C25.5808 46.7862 26.1063 46.7948 26.632 46.8042C26.1623 48.0668 25.6958 49.3307 25.2349 50.5965C25.1316 49.1688 25.051 47.8808 24.9885 46.7744ZM78.3239 77.433H37.676C33.5375 77.433 29.7901 74.949 28.1088 71.2432C29.6483 70.8593 30.9834 69.7512 31.5962 68.1883C32.2716 66.4668 32.8852 64.8808 33.4722 63.34C33.7027 62.7351 33.3993 62.0581 32.7944 61.8276C32.1895 61.5973 31.5125 61.9006 31.282 62.5054C30.6976 64.0392 30.0866 65.618 29.4141 67.3326C28.9285 68.5713 27.6047 69.2808 26.3318 68.9818C25.5321 68.7953 24.7513 68.5114 24.0125 68.1384C22.8482 67.5489 22.2895 66.1534 22.7126 64.893C25.7173 55.9517 28.9947 46.9472 32.4538 38.1298C32.9402 36.8909 34.2649 36.1809 35.5343 36.4782C36.3419 36.6677 37.1228 36.9521 37.8568 37.324C39.0213 37.9122 39.5796 39.3071 39.1556 40.5688C37.1892 46.4197 35.096 52.3277 32.9338 58.1289C32.7077 58.7353 33.0161 59.4101 33.6226 59.6363C34.2291 59.8625 34.9039 59.5539 35.13 58.9475C36.6034 54.994 38.0438 50.9912 39.4354 46.9905C45.5975 47.0574 51.7981 47.0919 57.9999 47.0919C64.2022 47.0919 70.4034 47.0575 76.566 46.9905C79.04 54.1034 81.6657 61.2104 84.4035 68.1872C85.0165 69.7501 86.3517 70.8582 87.8914 71.2423C86.2104 74.9485 82.4625 77.433 78.3239 77.433ZM91.9882 68.1366C91.2513 68.5089 90.4701 68.7933 89.6664 68.9816C88.3965 69.2793 87.0717 68.5697 86.5855 67.3309C83.1335 58.5337 79.8561 49.5292 76.8443 40.5674C76.4204 39.3061 76.9788 37.9111 78.1434 37.3226C78.88 36.9503 79.6613 36.6659 80.4651 36.4776C80.6599 36.432 80.856 36.4099 81.0501 36.4099C82.1219 36.4099 83.1344 37.0795 83.546 38.1283C86.998 46.9255 90.2753 55.93 93.2871 64.8919C93.711 66.1532 93.1526 67.5481 91.9882 68.1366ZM89.3688 46.8042C89.8935 46.7948 90.4184 46.7862 90.9431 46.7764L90.985 46.7756C90.9939 46.7755 91.0028 46.7745 91.0117 46.7744C90.9491 47.8803 90.8684 49.1679 90.7653 50.595C90.3043 49.3293 89.8381 48.066 89.3688 46.8042ZM95.4178 40.6968C95.0634 42.4503 93.7121 43.8621 91.968 44.2949C91.6392 44.3787 91.2917 44.4249 90.9383 44.4323L90.8994 44.433C90.0984 44.448 89.2976 44.4619 88.4966 44.4755C87.5872 42.0628 86.6645 39.6594 85.7278 37.2721C84.8195 34.9566 82.3262 33.634 79.9304 34.1956C78.9455 34.4264 77.9884 34.7747 77.086 35.231C74.8892 36.3412 73.8301 38.9564 74.6224 41.3142C74.9964 42.4272 75.3746 43.5408 75.7566 44.6546C63.9637 44.7771 52.035 44.7771 40.242 44.6546C40.6242 43.5405 41.0036 42.4269 41.3769 41.3157C42.1699 38.9572 41.1106 36.3418 38.9145 35.2325C38.0157 34.7772 37.0586 34.4286 36.0692 34.1963C33.6733 33.6351 31.1809 34.958 30.2716 37.2736C29.3346 39.6619 28.4122 42.0648 27.5036 44.4757C26.702 44.4621 25.9002 44.448 25.0986 44.4332L25.0641 44.4326C24.7077 44.4251 24.3605 44.3788 24.0248 44.2933C22.2876 43.8622 20.936 42.4505 20.5814 40.6959C20.2647 39.1357 20.2647 37.5536 20.5816 35.9927C21.0116 33.8689 22.8958 32.2977 25.0619 32.2568C46.9179 31.8373 69.0815 31.8373 90.9378 32.2568C93.1037 32.2977 94.9878 33.8689 95.418 35.9935C95.735 37.5534 95.735 39.1355 95.4178 40.6968Z" fill="#3BB77E"/>
<path d="M42.5089 51.1035H42.4298C39.7459 51.1099 37.5801 53.2283 37.4991 55.9262C37.404 59.1037 37.404 62.326 37.4991 65.5034C37.5801 68.2012 39.7458 70.3196 42.4307 70.3261H42.5089C45.1927 70.3196 47.3586 68.2013 47.4395 65.5034C47.5347 62.326 47.5347 59.1037 47.4395 55.9262C47.3584 53.2281 45.1927 51.1099 42.5089 51.1035ZM45.0966 65.4331C45.0546 66.8354 43.8911 67.9788 42.5042 67.9821H42.4354C41.0474 67.9788 39.8839 66.8352 39.8419 65.4331C39.748 62.3022 39.748 59.1273 39.8419 55.9964C39.8839 54.5941 41.0474 53.4507 42.4362 53.4474H42.5023C43.8903 53.4507 45.0546 54.5941 45.0966 55.9964C45.1905 59.1273 45.1905 62.3022 45.0966 65.4331Z" fill="#3BB77E"/>
<path d="M58.04 51.1035H57.961C55.2771 51.1099 53.1113 53.2283 53.0303 55.9262C52.9352 59.1037 52.9352 62.326 53.0303 65.5034C53.1113 68.2012 55.277 70.3196 57.9619 70.3261H58.04C60.724 70.3196 62.8897 68.2012 62.9707 65.5034C63.0658 62.326 63.0658 59.1037 62.9707 55.9262C62.8897 53.2283 60.724 51.1099 58.04 51.1035ZM60.6278 65.4331C60.5858 66.8354 59.4224 67.9788 58.0355 67.9821H57.9668C56.5787 67.9788 55.4153 66.8352 55.3732 65.4331C55.2793 62.3022 55.2793 59.1273 55.3732 55.9964C55.4153 54.5941 56.5787 53.4507 57.9675 53.4474H58.0336C59.4216 53.4507 60.5858 54.5941 60.6278 55.9964C60.7217 59.1273 60.7217 62.3022 60.6278 65.4331Z" fill="#3BB77E"/>
<path d="M73.5692 51.1035H73.4903C70.8063 51.1099 68.6406 53.2283 68.5597 55.9262C68.4645 59.1037 68.4645 62.326 68.5597 65.5034C68.6406 68.2012 70.8063 70.3197 73.4912 70.3261H73.5694C76.2534 70.3196 78.4191 68.2012 78.5 65.5034C78.5952 62.326 78.5952 59.1037 78.5 55.9262C78.4191 53.2283 76.2534 51.1099 73.5692 51.1035ZM76.1571 65.4331C76.1151 66.8354 74.9518 67.9788 73.5647 67.9821H73.4961C72.1081 67.9788 70.9447 66.8352 70.9027 65.4331C70.8086 62.3022 70.8086 59.1273 70.9027 55.9964C70.9447 54.5941 72.1081 53.4507 73.4969 53.4474H73.563C74.951 53.4507 76.1152 54.5941 76.1573 55.9964C76.251 59.1273 76.251 62.3022 76.1571 65.4331Z" fill="#3BB77E"/>
</g>
</g>
</g>
<defs>
<clipPath id="clip0_6511_666">
<rect x="18" width="80" height="80" rx="10" fill="white"/>
</clipPath>
<clipPath id="clip1_6511_666">
<rect width="80" height="80" fill="white" transform="translate(18)"/>
</clipPath>
<clipPath id="clip2_6511_666">
<rect width="80" height="80" fill="white" transform="translate(18)"/>
</clipPath>
</defs>
</svg>
