<svg width="80" height="80" viewBox="0 0 80 80" fill="none" xmlns="http://www.w3.org/2000/svg">
<g clip-path="url(#clip0_6511_680)">
<g clip-path="url(#clip1_6511_680)">
<g clip-path="url(#clip2_6511_680)">
<mask id="mask0_6511_680" style="mask-type:luminance" maskUnits="userSpaceOnUse" x="0" y="0" width="80" height="80">
<path d="M80 0H0V80H80V0Z" fill="white"/>
</mask>
<g mask="url(#mask0_6511_680)">
<path d="M64.5 35.5H34.5V37.5L35 38.5L37.5 41L39.5 42L40.5 43.5L40 45.5L36.5 47L34.5 50.5L34 61L35.5 72.5L36.5 76L38.5 78C39 78.1667 40.2 78.5 41 78.5C42 78.5 46.5 79 47.5 79H53H56.5L55.5 77C55.1667 76.1667 54.5 74.2 54.5 73C54.5 71.8 54.1667 68.5 54 67V59.5C54 58.7 55 52.8333 55.5 50V48.5C55.5 48 57 48 57.5 47.5C58 47 59.5 47 60 47C60.5 47 62 46.5 62.5 46.5C63 46.5 62 46 61.5 45.5C61 45 61.5 45 61.5 44.5C61.5 44 61.5 43 61 42.5C60.6 42.1 61.8333 41.3333 62.5 41C63 40.8333 64 40.4 64 40C64 39.6 65 39.1667 65.5 39L66.5 37.5V36L64.5 35.5Z" fill="#FDC040"/>
<path d="M7.55664 61.5928C7.55664 64.0975 9.5943 66.1352 12.0989 66.1352C14.6035 66.1352 16.6412 64.0975 16.6412 61.5928C16.6412 59.0881 14.6035 57.0505 12.0989 57.0505C9.5943 57.0505 7.55664 59.0881 7.55664 61.5928ZM14.2976 61.5928C14.2976 62.8052 13.3114 63.7914 12.099 63.7914C10.8867 63.7914 9.90055 62.8052 9.90055 61.5928C9.90055 60.3805 10.8868 59.3942 12.099 59.3942C13.3112 59.3942 14.2976 60.3806 14.2976 61.5928Z" fill="#3BB77E"/>
<path d="M17.8749 55.3314C19.8468 55.3314 21.4511 53.7271 21.4511 51.7553C21.4511 49.7834 19.8468 48.1792 17.8749 48.1792C15.903 48.1792 14.2988 49.7834 14.2988 51.7553C14.2988 53.7271 15.903 55.3314 17.8749 55.3314ZM17.8749 50.5228C18.5546 50.5228 19.1074 51.0756 19.1074 51.7551C19.1074 52.4346 18.5546 52.9875 17.8749 52.9875C17.1954 52.9875 16.6425 52.4346 16.6425 51.7551C16.6425 51.0756 17.1955 50.5228 17.8749 50.5228Z" fill="#3BB77E"/>
<path d="M30.3459 69.9975C30.3459 68.0256 28.7415 66.4214 26.7696 66.4214C24.7978 66.4214 23.1934 68.0256 23.1934 69.9975C23.1934 71.9693 24.7978 73.5736 26.7696 73.5736C28.7415 73.5736 30.3459 71.9693 30.3459 69.9975ZM25.5373 69.9975C25.5373 69.3179 26.0901 68.7651 26.7698 68.7651C27.4495 68.7651 28.0023 69.3179 28.0023 69.9975C28.0023 70.677 27.4495 71.2298 26.7698 71.2298C26.0901 71.2298 25.5373 70.677 25.5373 69.9975Z" fill="#3BB77E"/>
<path d="M77.4985 50.2262C77.161 47.7714 75.0404 45.9203 72.5659 45.9203H71.7357L72.5356 43.8403C72.7679 43.2363 72.4665 42.5581 71.8623 42.3259C71.2581 42.0934 70.5801 42.3952 70.3481 42.9991L69.2248 45.9203H64.3481C64.1829 45.8411 64.0157 45.7667 63.8454 45.7031C62.6271 45.2491 62.0095 44.5417 62.0095 43.6012C62.0095 42.7248 63.4912 42.0139 64.1293 41.7484C66.0226 40.9584 67.3796 39.2875 67.7593 37.2778C68.5459 33.1047 68.9031 28.6397 69.0462 26.3481C69.119 25.1581 68.8496 23.9939 68.2673 22.9814C65.2079 17.662 59.666 14.04 57.8126 12.9313V9.18375H57.8737C58.521 9.18375 59.0456 8.65906 59.0456 8.01188V3.79797C59.0456 1.70375 57.3417 0 55.2474 0H45.9665C43.8724 0 42.1685 1.70375 42.1685 3.79797V8.01188C42.1685 8.65906 42.6931 9.18375 43.3404 9.18375H43.4018V12.9308C42.2056 13.6463 39.4728 15.4098 36.8628 17.9995V17.1773C38.1976 16.4552 39.1064 15.0423 39.1064 13.4211C39.1064 11.0678 37.1918 9.15344 34.8385 9.15344H16.3221C13.9689 9.15344 12.0545 11.068 12.0545 13.4211C12.0545 15.0427 12.9637 16.4558 14.299 17.1778V20.7633C12.6949 21.6991 8.33733 24.4806 4.49858 29.092C3.80889 29.9228 3.36936 30.9309 3.22749 32.008C3.0367 33.4573 2.75077 35.8236 2.47233 38.8648C2.41327 39.5094 2.88795 40.0797 3.53249 40.1387C3.56874 40.142 3.60483 40.1438 3.64061 40.1438C4.23952 40.1438 4.75061 39.6869 4.80624 39.0786C5.08124 36.0755 5.36295 33.7422 5.55108 32.3141C5.61233 31.8494 5.76764 31.4073 6.00389 31.0122H32.5607C32.7674 32.9616 33.0562 35.1581 33.4548 37.277C33.8326 39.2867 35.1898 40.9583 37.086 41.7487C37.7226 42.0136 39.2032 42.7242 39.2032 43.6011C39.2032 44.542 38.5862 45.2492 37.3684 45.7033C35.1817 46.52 33.6399 48.5347 33.4406 50.8356C32.9793 56.1433 32.637 66.4137 35.5279 75.5647C35.7714 76.3358 36.151 77.0327 36.6348 77.6342C36.4098 77.648 36.1843 77.6564 35.9579 77.6564H15.2018C9.53624 77.6564 4.77311 73.2384 4.35811 67.5986C3.82217 60.3138 3.84795 52.2808 4.43499 43.7227C4.4792 43.0769 3.9917 42.5177 3.34608 42.4733C2.70092 42.4286 2.14092 42.9164 2.0967 43.5622C1.50217 52.2306 1.47655 60.3755 2.02077 67.7705C2.26608 71.1061 3.75342 74.1966 6.20874 76.473C8.66186 78.7473 11.8557 80 15.2018 80H35.9581C37.0904 80 38.2114 79.8562 39.2971 79.5738C40.0157 79.8495 40.7939 79.9992 41.6018 79.9992L72.5659 80C75.0404 80 77.161 78.1489 77.4985 75.6939C78.6601 67.2444 78.6601 58.6759 77.4985 50.2262ZM75.9167 67.3887C74.9832 67.9598 73.9212 68.2602 72.8142 68.2602C69.5299 68.2602 66.8581 65.5889 66.8581 62.3056C66.8581 59.0214 69.5301 56.3494 72.8142 56.3494C73.891 56.3494 74.9265 56.6336 75.8396 57.1742C76.0557 60.5755 76.0821 63.9856 75.9167 67.3887ZM66.707 26.2033C66.5951 27.9941 66.3493 31.1444 65.8642 34.4075H35.3509C34.8665 31.1473 34.619 27.9956 34.5059 26.2047C34.4612 25.4734 34.6243 24.7634 34.9785 24.1494C35.1215 23.9008 35.2714 23.6562 35.4265 23.4153H65.7873C65.9426 23.6562 66.0926 23.9009 66.2356 24.1495C66.5887 24.7633 66.7515 25.4739 66.707 26.2033ZM16.6428 17.6889H34.519V20.2778H16.6428V17.6889ZM44.5123 3.79797C44.5123 2.99609 45.1646 2.34375 45.9665 2.34375H55.2474C56.0493 2.34375 56.7018 2.99609 56.7018 3.79797V6.84H44.5123V3.79797ZM55.4689 9.18375V12.4367H45.7456V9.18375H55.4689ZM44.8826 14.7805H56.3315C57.3209 15.3584 61.0393 17.6506 64.0148 21.0717H37.199C40.1745 17.65 43.8943 15.3577 44.8826 14.7805ZM16.3221 11.4972H34.8385C35.8995 11.4972 36.7626 12.3603 36.7626 13.4211C36.7626 14.4816 35.9003 15.3442 34.8399 15.345H16.3206C15.2603 15.3442 14.3981 14.4814 14.3981 13.4211C14.3981 12.3603 15.2612 11.4972 16.3221 11.4972ZM8.0367 28.6684C11.4185 25.2014 14.8482 23.145 15.7723 22.6219H33.1607C33.089 22.7406 33.0171 22.8591 32.9479 22.9795C32.364 23.9914 32.0939 25.1561 32.1668 26.3502C32.2064 26.9769 32.2623 27.7672 32.3382 28.6684H8.0367ZM72.5659 77.6562H59.6126L58.7909 77.6555C57.4881 77.6477 56.3738 76.6702 56.1957 75.3748C56.0112 74.0316 55.856 72.6797 55.7345 71.3567C55.6751 70.7123 55.1048 70.237 54.4603 70.297C53.8157 70.3562 53.3413 70.9267 53.4006 71.5713C53.5254 72.9289 53.6846 74.3158 53.8738 75.6939C53.9723 76.4095 54.2231 77.0733 54.5892 77.6553H41.6018C39.8339 77.6553 38.2912 76.5314 37.7631 74.8586C34.9943 66.0942 35.3295 56.1725 35.7756 51.038C35.8973 49.633 36.8445 48.4008 38.1878 47.8989C40.3226 47.103 41.547 45.5364 41.547 43.6009C41.547 42.4445 40.9293 40.8089 37.9871 39.585C36.8229 39.0997 35.9896 38.075 35.7582 36.8438C35.7524 36.813 35.7468 36.7819 35.7412 36.7511H65.4732C65.4676 36.7816 65.462 36.8123 65.4562 36.8428C65.2234 38.0747 64.3899 39.0998 63.2278 39.5847C60.2834 40.8095 59.6654 42.4448 59.6654 43.6011C59.6654 44.4583 59.9068 45.2427 60.3601 45.9203H58.8062C56.3317 45.9203 54.211 47.7714 53.8735 50.2261C53.1171 55.7188 52.8515 61.3153 53.0838 66.86C53.111 67.5067 53.6635 68.0081 54.3037 67.9817C54.9504 67.9547 55.4528 67.4084 55.4256 66.7619C55.1992 61.3564 55.4581 55.9005 56.1954 50.5456C56.3745 49.245 57.4968 48.2641 58.8064 48.2641H72.5659C73.8754 48.2641 74.9978 49.245 75.1768 50.5455C75.3574 51.8591 75.5059 53.1759 75.6289 54.4945C74.7349 54.1723 73.7865 54.0056 72.8142 54.0056C68.2376 54.0056 64.5143 57.7289 64.5143 62.3056C64.5143 66.8814 68.2376 70.6039 72.8142 70.6039C73.8292 70.6039 74.8171 70.4228 75.7449 70.0723C75.6063 71.8434 75.4192 73.6117 75.1768 75.3745C74.9978 76.6753 73.8754 77.6562 72.5659 77.6562Z" fill="#3BB77E"/>
</g>
</g>
</g>
</g>
<defs>
<clipPath id="clip0_6511_680">
<rect width="80" height="80" rx="10" fill="white"/>
</clipPath>
<clipPath id="clip1_6511_680">
<rect width="80" height="80" fill="white"/>
</clipPath>
<clipPath id="clip2_6511_680">
<rect width="80" height="80" fill="white"/>
</clipPath>
</defs>
</svg>
