<svg width="116" height="87" viewBox="0 0 116 87" fill="none" xmlns="http://www.w3.org/2000/svg">
<g clip-path="url(#clip0_6511_694)">
<g clip-path="url(#clip1_6511_694)">
<g clip-path="url(#clip2_6511_694)">
<mask id="mask0_6511_694" style="mask-type:luminance" maskUnits="userSpaceOnUse" x="18" y="0" width="80" height="80">
<path d="M98 0H18V80H98V0Z" fill="white"/>
</mask>
<g mask="url(#mask0_6511_694)">
<path d="M40.5 57.0001C38.1 56.6001 36.8333 57.5001 36.5 58.0001L36 58.5001C35.5 59.1668 34.5 60.6001 34.5 61.0001V64.0001C34.5 64.5001 34.5 66.0001 35 67.0001C35.5 68.0001 35.5 68.5001 36 69.0001C36.5 69.5001 37 70.0001 37.5 70.0001C38 70.0001 40.5 70.5001 41 70.5001H46.5C48 70.5001 48.5 70.0001 49.5 70.0001C50.5 70.0001 51.5 69.5001 51.5 69.0001C51.5 68.5001 52 68.0001 52.5 67.5001C53 67.0001 52.5 66.0001 53 65.1755C53.5 64.3508 53 64.0001 53 63.5001V61.0001C53 60.5001 52.5 60.0001 52.5 59.5001C52.5 59.0001 51.5 58.5001 51 58.0001C50.6 57.6001 49.5 57.1668 49 57.0001C47.1667 57.1668 42.9 57.4001 40.5 57.0001Z" fill="#FDC040"/>
<path d="M85 31C77.8 33.8 64 32.1667 58 31L56.5 32L54 36L52.5 39.5C54.1 39.9 58.8333 44 61 46L62.5 49C66.1 49.4 67 52.5 67 54L67.5 64.5C74.3 66.5 90 63.3333 97 61.5C97.4 60.7 95.8333 52.1667 95 48C93 42 87.5 34.1667 85 31Z" fill="#FDC040"/>
<path d="M92.0954 38.9178C89.7073 34.5531 87.3333 31.7326 86.4782 30.7777V24.3355L97.5723 15.226C97.8364 15.0089 97.9928 14.6875 98.0002 14.3456C98.0077 14.0037 97.8653 13.6758 97.6108 13.4476L89.2167 5.92389C88.7348 5.49199 87.9938 5.53262 87.5618 6.01436C87.1297 6.49625 87.1704 7.23722 87.6523 7.66927L95.0293 14.2814L86.4786 21.3025V16.5098C86.4786 15.8626 85.9541 15.3378 85.3067 15.3378C84.6593 15.3378 84.1348 15.8626 84.1348 16.5098L84.1342 30.2442C75.7665 31.5985 67.2977 31.5983 58.9301 30.2439V16.5098C58.9301 15.8626 58.4055 15.3378 57.7581 15.3378C57.1108 15.3378 56.5862 15.8626 56.5862 16.5098V21.3029L48.0349 14.2814L57.1576 6.10342C58.4997 4.89994 60.2329 4.39976 61.9008 4.5979C62.2442 6.07327 63.033 9.16792 64.2443 12.2509C66.2347 17.3168 68.5564 20.3454 71.1446 21.2521C71.2701 21.296 71.401 21.3181 71.532 21.3181C71.6629 21.3181 71.794 21.296 71.9193 21.2521C74.5075 20.3454 76.8293 17.3168 78.8202 12.251C80.0295 9.17386 80.8173 6.08733 81.1622 4.60837C82.1947 4.48492 83.261 4.62305 84.2523 5.04745C84.8478 5.3023 85.5363 5.02619 85.791 4.43133C86.0458 3.8363 85.7699 3.14753 85.175 2.89283C82.1644 1.60387 78.6546 2.19593 76.2325 4.40054L75.151 5.38496C73.0876 7.26378 69.9771 7.26378 67.9145 5.38496L66.8332 4.40054C63.6399 1.49356 58.8075 1.47559 55.5929 4.35851L45.4533 13.4479C45.1986 13.6761 45.0564 14.0042 45.0639 14.3459C45.0712 14.6878 45.2276 15.0092 45.4917 15.2263L56.5859 24.3359V30.777C55.8176 31.6321 53.8431 33.967 51.7387 37.5475C49.9564 36.5977 48.0715 35.66 46.1622 34.7108C44.4937 33.8811 42.8132 33.0454 41.2 32.1968C42.7766 30.2225 43.9928 27.9877 44.5257 25.3678C45.3401 21.364 44.1488 17.7876 41.2573 15.5555C38.5161 13.4395 34.7411 12.9678 31.8634 14.3817C30.3208 15.1396 27.733 17.1065 27.733 21.7636C27.733 24.7115 29.6052 27.4983 33.4567 30.2834C34.6614 31.1546 36.0159 31.9983 37.4575 32.8217C35.6702 34.5797 33.6191 36.1444 31.6813 37.6223C27.5094 40.8043 23.5513 43.8257 23.449 47.8965C20.8967 48.5084 18.9274 50.6367 18.5846 53.3175C17.8051 59.4208 17.8051 65.6101 18.5846 71.7138C18.9783 74.7913 21.5167 77.1432 24.6206 77.3059C30.844 77.6304 37.1111 77.7926 43.3784 77.7926C49.6455 77.7926 55.9131 77.6303 62.1366 77.3059C65.2412 77.1431 67.7788 74.791 68.1707 71.7138C68.4042 69.889 68.5662 68.0565 68.6601 66.2209C69.6136 66.2495 70.575 66.2648 71.532 66.2648C86.831 66.2648 96.8126 62.6852 97.2301 62.5328C97.6925 62.3639 98.0002 61.9242 98.0002 61.432C98.0005 51.7438 94.7894 43.8413 92.0954 38.9178ZM66.3366 7.11721C69.298 9.8156 73.7661 9.8156 76.7293 7.11753L77.8106 6.13327C78.0303 5.93326 78.2627 5.75185 78.505 5.58903C78.098 7.14159 77.4736 9.27058 76.6393 11.3933C74.6858 16.3643 72.8414 18.227 71.5324 18.8756C70.2236 18.227 68.3792 16.3643 66.4261 11.3933C65.592 9.27027 64.9675 7.13987 64.5604 5.58668C64.8017 5.74966 65.0342 5.93154 65.2558 6.13311L66.3366 7.11721ZM30.0775 21.7629C30.0775 19.2163 31.0526 17.3911 32.8975 16.4846C33.6691 16.1055 34.5508 15.9216 35.4584 15.9216C36.975 15.9216 38.5632 16.4355 39.8257 17.4101C41.0934 18.3886 43.0913 20.6629 42.2296 24.8998C41.7572 27.2224 40.6015 29.2429 39.0933 31.0544C34.0283 28.216 30.0775 25.2026 30.0775 21.7629ZM24.7428 50.0667C26.8317 49.9583 28.9215 49.8676 30.9541 49.7973C31.601 49.7748 32.1071 49.2325 32.0846 48.5856C32.0621 47.9385 31.5238 47.4344 30.8729 47.4549C29.2153 47.5122 27.5197 47.5836 25.8178 47.6665C26.1197 44.8142 29.3839 42.322 33.1033 39.4854C35.2882 37.8187 37.6077 36.0496 39.6013 34.0009C41.3972 34.958 43.2723 35.8905 45.119 36.8088C46.9676 37.7281 48.8311 38.6549 50.5985 39.5979C49.4375 41.8037 48.2957 44.3707 47.3507 47.2627C43.4084 47.2188 39.4726 47.2358 35.5662 47.3216C34.919 47.3358 34.406 47.8718 34.4202 48.519C34.4344 49.1662 34.9677 49.6845 35.6174 49.6648C44.3537 49.4731 53.2351 49.6084 62.015 50.0667C63.9863 50.1689 65.5977 51.6605 65.8464 53.614C66.011 54.9002 66.1375 56.1904 66.2303 57.4828C66.1356 58.7797 66.007 60.0673 65.8464 61.3129C65.5978 63.2649 63.986 64.7557 62.0131 64.8581C59.3596 64.9967 56.6939 65.1046 54.0658 65.1835C54.1221 63.5286 54.0856 61.8669 53.953 60.2213C53.7738 57.9956 51.9682 56.2257 49.7534 56.1046C45.9613 55.8971 42.1158 55.8969 38.3246 56.1046C36.1096 56.2257 34.3042 57.9956 34.1249 60.2213C33.9913 61.8794 33.9552 63.554 34.0133 65.2215C30.9271 65.1393 27.8157 65.019 24.7428 64.8581C22.7705 64.7559 21.1586 63.265 20.9101 61.3125C20.7529 60.0815 20.624 58.7981 20.5259 57.4968C20.6187 56.1998 20.7453 54.9049 20.9101 53.614C21.1598 51.6608 22.7717 50.1689 24.7428 50.0667ZM52.6609 40.7348C56.4575 42.9074 59.5251 45.1801 60.5559 47.651C56.9829 47.4804 53.3967 47.3621 49.8116 47.2978C50.6564 44.8513 51.6506 42.6517 52.6609 40.7348ZM51.6166 66.9977C51.531 68.0604 50.6749 68.9049 49.6253 68.9624C45.9184 69.1653 42.1596 69.1653 38.4524 68.9624C37.4028 68.9049 36.5467 68.0604 36.461 66.9977C36.2849 64.812 36.2849 62.5953 36.461 60.4096C36.5467 59.3469 37.4028 58.5023 38.4525 58.4448C40.3059 58.3434 42.1724 58.2927 44.0388 58.2927C45.9053 58.2927 47.7718 58.3434 49.6253 58.4448C50.6749 58.5023 51.531 59.3469 51.6166 60.4096C51.7927 62.5953 51.7927 64.812 51.6166 66.9977ZM62.0147 74.9647C49.6487 75.6094 37.109 75.6094 24.7435 74.9647C22.7722 74.8613 21.1598 73.3689 20.9101 71.4161C20.6517 69.392 20.4838 67.358 20.4026 65.3211C21.4942 66.4155 22.9782 67.1136 24.6209 67.1988C27.7868 67.3647 30.9941 67.4879 34.1731 67.5705C34.5168 69.6125 36.2389 71.1888 38.3244 71.3028C40.2204 71.4066 42.1297 71.4585 44.0388 71.4585C45.948 71.4585 47.8574 71.4066 49.7531 71.3028C51.8515 71.188 53.5814 69.5931 53.9102 67.5332C56.6282 67.4533 59.3884 67.3424 62.1347 67.1988C63.7784 67.1136 65.263 66.415 66.3547 65.3203C66.2733 67.3575 66.1052 69.392 65.8463 71.4166C65.5975 73.3692 63.986 74.8613 62.0147 74.9647ZM91.8104 61.6368C91.5693 58.1137 91.1238 54.6034 90.4816 51.1824C90.3622 50.5463 89.7503 50.1276 89.1136 50.2469C88.4775 50.3662 88.0585 50.9788 88.1781 51.6149C88.8248 55.0605 89.265 58.5999 89.4937 62.1501C88.5914 62.335 87.5682 62.527 86.4358 62.7139C86.2941 58.0009 85.7911 53.3081 84.9351 48.7445C84.8158 48.1083 84.2032 47.6897 83.5673 47.8086C82.9311 47.928 82.5122 48.5404 82.6316 49.1765C83.4821 53.7122 83.9757 58.3797 84.1018 63.0664C80.6075 63.546 76.3401 63.9207 71.5321 63.9207C70.6025 63.9207 69.6686 63.906 68.7423 63.8783C68.8086 60.3513 68.619 56.8203 68.171 53.3178C67.8196 50.5581 65.7438 48.3843 63.0818 47.8469C62.2214 44.2659 58.5447 41.3892 53.8056 38.6847C55.6787 35.5144 57.4311 33.3759 58.1963 32.4985C62.6227 33.2351 67.0777 33.6045 71.5327 33.6045C75.9874 33.6045 80.4421 33.2353 84.8684 32.4987C85.7478 33.5043 87.9246 36.1632 90.0774 40.1135C92.544 44.6396 95.4698 51.8136 95.6477 60.5893C94.8855 60.8298 93.5786 61.2146 91.8104 61.6368Z" fill="#3BB77E"/>
<path d="M48.7412 60.2224C47.1758 60.1492 45.5937 60.1121 44.0385 60.1121C42.4831 60.1121 40.9009 60.1492 39.3355 60.2224C38.7377 60.2504 38.257 60.7243 38.2205 61.3219C38.1244 62.9022 38.1244 64.5051 38.2205 66.0856C38.2569 66.6832 38.7377 67.1571 39.3355 67.1851C40.8996 67.2582 42.482 67.2954 44.0385 67.2954C45.5948 67.2954 47.1771 67.2583 48.7412 67.1851C49.339 67.1571 49.8197 66.6832 49.8562 66.0856C49.9523 64.5051 49.9523 62.9024 49.8562 61.3219C49.8198 60.7245 49.3392 60.2504 48.7412 60.2224ZM47.5657 64.8879C45.2101 64.9725 42.8666 64.9725 40.5113 64.8879C40.4862 64.0996 40.4862 63.308 40.5113 62.5197C42.8681 62.435 45.2089 62.435 47.5657 62.5197C47.5908 63.308 47.5908 64.0996 47.5657 64.8879Z" fill="#3BB77E"/>
</g>
</g>
</g>
</g>
<defs>
<clipPath id="clip0_6511_694">
<rect x="18" width="80" height="80" rx="10" fill="white"/>
</clipPath>
<clipPath id="clip1_6511_694">
<rect width="80" height="80" fill="white" transform="translate(18)"/>
</clipPath>
<clipPath id="clip2_6511_694">
<rect width="80" height="80" fill="white" transform="translate(18)"/>
</clipPath>
</defs>
</svg>
