<svg width="116" height="87" viewBox="0 0 116 87" fill="none" xmlns="http://www.w3.org/2000/svg">
<g clip-path="url(#clip0_6511_708)">
<g clip-path="url(#clip1_6511_708)">
<g clip-path="url(#clip2_6511_708)">
<path d="M47 53C57.4934 53 66 44.9411 66 35C66 25.0589 57.4934 17 47 17C36.5066 17 28 25.0589 28 35C28 44.9411 36.5066 53 47 53Z" fill="#FDC040"/>
<path d="M47.2251 54.4912C58.6509 54.4912 67.9464 45.8927 67.9464 35.3236C67.9464 24.7545 58.6508 16.156 47.2251 16.156C35.7994 16.156 26.5039 24.7545 26.5039 35.3236C26.5039 45.8927 35.7994 54.4912 47.2251 54.4912ZM47.2251 18.502C57.3573 18.502 65.6004 26.0481 65.6004 35.3236C65.6004 44.5991 57.3572 52.1452 47.2251 52.1452C37.093 52.1452 28.8499 44.5991 28.8499 35.3236C28.8499 26.0481 37.093 18.502 47.2251 18.502Z" fill="#3BB77E"/>
<path d="M53.5703 32.3495C53.5703 34.255 55.1205 35.8053 57.0261 35.8053C58.9316 35.8053 60.4818 34.255 60.4818 32.3495C60.4818 30.4441 58.9316 28.8938 57.0261 28.8938C55.1205 28.8938 53.5703 30.4441 53.5703 32.3495ZM57.026 31.2399C57.6378 31.2399 58.1356 31.7377 58.1356 32.3495C58.1356 32.9614 57.6378 33.4592 57.026 33.4592C56.414 33.4592 55.9161 32.9614 55.9161 32.3495C55.9161 31.7377 56.4141 31.2399 57.026 31.2399Z" fill="#3BB77E"/>
<path d="M51.4304 30.0822C53.3358 30.0822 54.8861 28.5319 54.8861 26.6265C54.8861 24.721 53.3358 23.1707 51.4304 23.1707C49.5249 23.1707 47.9746 24.721 47.9746 26.6265C47.9746 28.5319 49.5249 30.0822 51.4304 30.0822ZM51.4304 25.5166C52.0422 25.5166 52.54 26.0145 52.54 26.6263C52.54 27.2382 52.0422 27.736 51.4304 27.736C50.8185 27.736 50.3207 27.2382 50.3207 26.6263C50.3207 26.0145 50.8185 25.5166 51.4304 25.5166Z" fill="#3BB77E"/>
<path d="M37.4244 35.8053C39.33 35.8053 40.8804 34.255 40.8804 32.3495C40.8804 30.4441 39.33 28.8938 37.4244 28.8938C35.519 28.8938 33.9688 30.4441 33.9688 32.3495C33.9688 34.255 35.519 35.8053 37.4244 35.8053ZM37.4244 31.2399C38.0364 31.2399 38.5343 31.7377 38.5343 32.3495C38.5343 32.9614 38.0364 33.4592 37.4244 33.4592C36.8126 33.4592 36.3148 32.9614 36.3148 32.3495C36.3148 31.7377 36.8126 31.2399 37.4244 31.2399Z" fill="#3BB77E"/>
<path d="M43.0183 30.0822C44.9237 30.0822 46.474 28.5319 46.474 26.6265C46.474 24.721 44.9237 23.1707 43.0183 23.1707C41.1128 23.1707 39.5625 24.721 39.5625 26.6265C39.5625 28.5319 41.1128 30.0822 43.0183 30.0822ZM43.0183 25.5166C43.6301 25.5166 44.1279 26.0145 44.1279 26.6263C44.1279 27.2382 43.6301 27.736 43.0183 27.736C42.4064 27.736 41.9086 27.2382 41.9086 26.6263C41.9086 26.0145 42.4064 25.5166 43.0183 25.5166Z" fill="#3BB77E"/>
<path d="M41.3017 34.769C41.1387 35.5358 40.7031 36.2371 40.042 36.7972C38.5571 38.055 37.7811 39.8924 37.9128 41.8382C38.118 44.8691 40.5605 47.2887 43.5943 47.4662C44.5948 47.5244 45.599 47.3353 46.4993 46.9182C46.9541 46.7075 47.4973 46.7075 47.9521 46.9182C48.7457 47.2859 49.6201 47.4765 50.5013 47.4765C50.6199 47.4765 50.7387 47.4731 50.8573 47.4662C53.891 47.2885 56.3334 44.869 56.5386 41.8381C56.6703 39.8922 55.8942 38.0548 54.4095 36.7972C53.7484 36.2371 53.3128 35.5358 53.15 34.7691C52.8671 33.438 52.1618 32.2679 51.1103 31.3853C48.8955 29.5262 45.5557 29.5262 43.341 31.3853C42.2897 32.2681 41.5846 33.4381 41.3017 34.769ZM44.8495 33.1821C46.2041 32.0449 48.2472 32.0449 49.6018 33.1821C50.2487 33.725 50.682 34.4424 50.8549 35.2566C51.1269 36.5363 51.8315 37.6881 52.8929 38.5872C53.803 39.3581 54.2786 40.4853 54.1977 41.6796C54.0721 43.5346 52.5771 45.0154 50.72 45.1241C50.0965 45.1605 49.4964 45.0481 48.9381 44.7894C48.3939 44.5373 47.8098 44.4113 47.2256 44.4113C46.6415 44.4113 46.0571 44.5374 45.513 44.7894C44.9548 45.0481 44.355 45.1608 43.7313 45.1241C41.8741 45.0154 40.3791 43.5346 40.2535 41.6798C40.1726 40.4853 40.6483 39.3581 41.5584 38.5872C42.6197 37.6882 43.3245 36.5365 43.5964 35.2566C43.7696 34.4425 44.2028 33.7251 44.8495 33.1821Z" fill="#3BB77E"/>
<path d="M93.3783 62.801C95.8696 59.6224 97.2406 55.6681 97.2406 51.616C97.2406 41.6044 89.0955 33.4592 79.0838 33.4592C77.2122 33.4592 75.3835 33.7405 73.6268 34.2947C73.5004 28.4952 73.1997 22.7034 72.7228 16.9426C72.5523 14.8963 72.9988 12.8999 74.0142 11.1692C75.3941 8.81548 76.6299 5.60031 74.6792 3.6495C73.8431 2.814 71.6996 1.60282 62.7765 0.73478C57.2067 0.193001 51.0906 0 47.224 0C43.3574 0 37.2413 0.193001 31.6713 0.734936C22.7482 1.60297 20.6048 2.81415 19.7684 3.64997C17.8179 5.60031 19.0536 8.81548 20.4337 11.1697C21.4489 12.9001 21.8955 14.8964 21.7248 16.9423C21.6587 17.7334 21.5931 18.5756 21.519 19.5932C21.4718 20.2393 21.9574 20.8014 22.6035 20.8485C23.2498 20.8959 23.8117 20.4101 23.8588 19.764C23.9325 18.755 23.9972 17.9205 24.0627 17.1377C24.2737 14.6068 23.7185 12.1325 22.4574 9.98272C22.3933 9.87324 22.3332 9.7661 22.2735 9.65912C25.8248 8.16375 37.4221 7.18858 47.2241 7.18858C50.955 7.18858 56.8753 7.37251 62.302 7.88848C68.295 8.45842 70.9758 9.16676 72.171 9.66506C72.1123 9.77001 72.0535 9.87511 71.9905 9.98256C70.7293 12.1325 70.1739 14.6066 70.3847 17.137C71.6009 31.8292 71.6649 46.7252 70.5819 61.4322C68.0651 61.4316 65.5478 61.4514 63.0438 61.4924C62.7224 57.5019 59.3723 54.3532 55.3005 54.3532C51.0169 54.3532 47.5319 57.8382 47.5319 62.1218C47.5319 63.9933 48.202 65.7778 49.4024 67.1767C49.1021 67.5266 48.8351 67.9005 48.6035 68.294C41.5869 68.3455 34.4789 68.003 27.4659 67.2721C25.6324 67.0821 24.1927 65.6055 24.0426 63.7604C22.9731 50.7091 22.809 37.4696 23.5549 24.4095C23.5918 23.7627 23.0974 23.2084 22.4507 23.1714C21.8041 23.1348 21.2497 23.6289 21.2126 24.2756C20.4605 37.4438 20.6259 50.7927 21.7042 63.951C21.9457 66.921 24.2672 69.2989 27.2233 69.6053C33.858 70.2968 40.5761 70.6462 47.2266 70.646C47.3835 70.646 47.5401 70.6438 47.6969 70.6434C47.5892 71.1609 47.5318 71.6922 47.5318 72.2313C47.5318 76.5149 51.0167 79.9998 55.3003 79.9998C59.3721 79.9998 62.7222 76.8513 63.0436 72.8607C67.9774 72.9417 72.9619 72.9417 77.8944 72.8607C78.2158 76.8511 81.5661 79.9998 85.6379 79.9998C86.8879 79.9998 88.1319 79.6953 89.2353 79.119C89.8096 78.8192 90.032 78.1105 89.7322 77.5362C89.4321 76.9619 88.7234 76.7393 88.1494 77.0395C87.3688 77.447 86.5238 77.6538 85.6379 77.6538C82.6479 77.6538 80.2153 75.2213 80.2153 72.2313C80.2153 72.0956 80.2225 71.9476 80.2379 71.7656C80.2659 71.4346 80.1522 71.1073 79.9251 70.8648C79.698 70.6224 79.379 70.4876 79.0466 70.494C73.3558 70.6027 67.5839 70.6027 61.8917 70.494C61.5613 70.4877 61.2405 70.6224 61.0132 70.8648C60.7861 71.1073 60.6724 71.4346 60.7004 71.7656C60.7157 71.9464 60.7229 72.0945 60.7229 72.2313C60.7229 75.2213 58.2904 77.6538 55.3005 77.6538C52.3105 77.6538 49.878 75.2213 49.878 72.2313C49.878 70.6255 50.5855 69.1105 51.8194 68.0748C52.0848 67.8519 52.2383 67.523 52.2383 67.1764C52.2383 66.8298 52.085 66.5009 51.8194 66.278C50.5855 65.2423 49.878 63.7274 49.878 62.1214C49.878 59.1315 52.3105 56.699 55.3005 56.699C58.2904 56.699 60.7229 59.1315 60.7229 62.1214C60.7229 62.2583 60.7157 62.4064 60.7004 62.5872C60.6724 62.9182 60.7861 63.2455 61.0132 63.4879C61.2405 63.7304 61.5609 63.866 61.8917 63.8588C67.5837 63.7502 73.3556 63.7502 79.0466 63.8588C79.3793 63.866 79.698 63.7304 79.9251 63.4879C80.1522 63.2455 80.2659 62.9182 80.2379 62.5872C80.2225 62.4052 80.2153 62.2572 80.2153 62.1214C80.2153 59.1315 82.6479 56.699 85.6379 56.699C88.6286 56.699 91.062 59.1315 91.062 62.1214C91.062 63.7277 90.3541 65.2425 89.1194 66.2775C88.8537 66.5004 88.7001 66.8295 88.7001 67.1764C88.7001 67.5233 88.8535 67.8524 89.1194 68.0752C90.3541 69.1103 91.062 70.6252 91.062 72.2313C91.062 72.9161 90.9362 73.5831 90.6881 74.2137C90.4509 74.8167 90.7476 75.4975 91.3504 75.7347C91.9533 75.9718 92.6343 75.6753 92.8714 75.0725C93.2273 74.1673 93.408 73.2115 93.408 72.2315C93.408 70.3596 92.7376 68.5751 91.5366 67.1765C92.5916 65.9485 93.2367 64.4223 93.3783 62.801ZM47.2243 4.84239C47.0121 4.84239 27.6514 4.87617 21.3255 7.53674C21.0024 6.49478 21.0256 5.71073 21.4272 5.30909C21.7445 4.99191 23.4376 3.89302 31.8985 3.06987C37.385 2.53623 43.4126 2.34604 47.224 2.34604C51.0354 2.34604 57.063 2.53623 62.5494 3.06987C71.0103 3.89302 72.7034 4.99191 73.0204 5.30878C73.4224 5.71073 73.4457 6.49462 73.1226 7.53658C66.7965 4.87632 47.4367 4.84239 47.2243 4.84239ZM85.6382 54.3531C81.5664 54.3531 78.2161 57.5016 77.8947 61.4922C76.2458 61.4652 74.5904 61.4506 72.9336 61.4416C73.5322 53.2487 73.7793 44.9985 73.6701 36.7567C75.3992 36.1251 77.2166 35.8053 79.0838 35.8053C87.8019 35.8053 94.8946 42.898 94.8946 51.616C94.8946 54.3243 94.1919 56.983 92.8848 59.324C91.7592 56.4192 88.9363 54.3531 85.6382 54.3531Z" fill="#3BB77E"/>
</g>
</g>
</g>
<defs>
<clipPath id="clip0_6511_708">
<rect x="18" width="80" height="80" rx="10" fill="white"/>
</clipPath>
<clipPath id="clip1_6511_708">
<rect width="80" height="80" fill="white" transform="translate(18)"/>
</clipPath>
<clipPath id="clip2_6511_708">
<rect width="80" height="80" fill="white" transform="translate(18)"/>
</clipPath>
</defs>
</svg>
