<svg width="116" height="87" viewBox="0 0 116 87" fill="none" xmlns="http://www.w3.org/2000/svg">
<g clip-path="url(#clip0_6511_722)">
<g clip-path="url(#clip1_6511_722)">
<path d="M77 54H59C55.6863 54 53 56.6863 53 60V72C53 75.3137 55.6863 78 59 78H77C80.3137 78 83 75.3137 83 72V60C83 56.6863 80.3137 54 77 54Z" fill="#FDC040"/>
<path d="M24 7.5L25 10L28 9L34 8.5L43.5 8L53.5 8.5L70.5 10L72 8.5L73 6C73.1667 5.33333 73.5 3.9 73.5 3.5C73.5 3.1 72.1667 3 71.5 3L70 3.5L68.5 4H65.5C65 3.5 63.9 2.5 63.5 2.5C63.1 2.5 62.3333 1.83333 62 1.5H59.5L58 3L56 4H54L51.5 2.5L49 1L46.5 1.5L45 3L42.5 4L40 3.5C39.5 3.33333 38.4 3 38 3C37.6 3 37.1667 2 37 1.5H35.5L33.5 2C33.1667 2.33333 32.4 3 32 3C31.5 3 30.5 3.5 30.5 4C30.5 4.5 29 4 28.5 4C28 4 27.5 4 27 3.5C26.6 3.1 25.8333 3 25.5 3H23.5L23 5L24 7.5Z" fill="#FDC040"/>
<path d="M48.1382 51.3666C53.4401 51.3666 58.4373 49.8171 62.2101 47.0033C66.0856 44.1127 68.2199 40.2373 68.2199 36.091C68.2199 31.9447 66.0856 28.0693 62.2101 25.1788C58.4373 22.365 53.4401 20.8154 48.1382 20.8154C42.8364 20.8154 37.8391 22.365 34.0664 25.1788C30.191 28.0693 28.0566 31.9447 28.0566 36.091C28.0566 40.2373 30.1909 44.1127 34.0664 47.0033C37.8391 49.8171 42.8364 51.3666 48.1382 51.3666ZM30.4004 36.091C30.4004 28.9604 38.3576 23.1592 48.1382 23.1592C57.9189 23.1592 65.8761 28.9604 65.8761 36.091C65.8761 43.2216 57.9189 49.0228 48.1382 49.0228C38.3576 49.0228 30.4004 43.2216 30.4004 36.091Z" fill="#3BB77E"/>
<path d="M92.1889 68.7062C93.1649 67.9488 93.696 67.0141 93.696 65.9922C93.696 64.9705 93.165 64.0358 92.1889 63.2784C93.0432 62.6861 93.623 62.0009 93.9207 61.2293C94.1802 60.5567 94.3457 59.4732 93.6599 58.1308C93.1253 57.085 92.2788 56.4064 91.2114 56.1681C89.5015 55.7866 87.2374 56.5566 84.4688 58.4568C83.1611 54.8953 79.8301 52.3456 75.8383 52.1648C75.0009 52.1268 74.1614 52.0971 73.3209 52.0712C74.1284 38.1217 73.8723 23.9894 72.5565 10.0343C72.9896 9.33659 73.8184 7.79187 74.3386 5.48933C74.6519 4.10336 74.062 2.74005 72.8364 2.01613C71.6293 1.30346 70.1741 1.44253 69.1293 2.37067C68.6047 2.83662 68.1091 3.12537 67.26 3.12537C66.1448 3.12537 65.6468 2.63708 64.8931 1.89801C64.0307 1.05221 62.9576 0 60.8852 0C58.813 0 57.74 1.05221 56.8778 1.89769C56.124 2.63677 55.626 3.12506 54.5112 3.12506C53.3961 3.12506 52.8983 2.63677 52.1446 1.89769C51.2822 1.05221 50.209 0 48.1368 0C46.0646 0 44.9916 1.05221 44.1296 1.89769C43.3758 2.63677 42.8778 3.12506 41.7629 3.12506C40.6481 3.12506 40.1503 2.63677 39.3963 1.89769C38.5343 1.05221 37.4613 0 35.3891 0C33.317 0 32.2442 1.05221 31.3821 1.89769C30.6283 2.63677 30.1305 3.12506 29.016 3.12506C28.1672 3.12506 27.6716 2.83631 27.1472 2.37052C26.1028 1.44253 24.6481 1.30331 23.4407 2.01566C22.2149 2.73927 21.6252 4.10242 21.9384 5.48839C22.4587 7.79187 23.2879 9.3369 23.7211 10.0344C23.5184 12.1831 23.3365 14.3743 23.1823 16.5608C23.1367 17.2064 23.6231 17.7668 24.2687 17.8122C24.9173 17.8572 25.4747 17.3713 25.5203 16.7256C25.6639 14.6903 25.8305 12.6492 26.0169 10.6443C40.7006 8.87627 55.5773 8.87627 70.2618 10.6443C71.5373 24.3814 71.7754 38.2873 70.9766 52.0146C67.2722 51.9495 63.554 51.9976 59.8713 52.1645C55.8795 52.3454 52.5485 54.895 51.2408 58.4565C48.4723 56.5563 46.2079 55.7861 44.4981 56.1678C43.4308 56.4061 42.5842 57.0847 42.0497 58.1307C41.3639 59.4729 41.5293 60.5563 41.7887 61.229C42.0079 61.7973 42.3814 62.3181 42.9034 62.79C37.2958 62.6315 31.6281 62.2129 26.0169 61.5367C24.7786 48.2017 24.514 34.6976 25.2309 21.3845C25.2658 20.7382 24.77 20.186 24.1237 20.1513C23.4735 20.1157 22.9254 20.6123 22.8904 21.2585C22.1579 34.861 22.4429 48.6594 23.7339 62.279C23.3042 62.9667 22.4637 64.5191 21.9388 66.8435C21.6251 68.2299 22.2148 69.5937 23.441 70.3178C24.6479 71.0306 26.1033 70.8909 27.1472 69.9632C27.6724 69.4973 28.1683 69.2085 29.0163 69.2085C30.1315 69.2085 30.6296 69.6968 31.3835 70.4361C32.2459 71.2816 33.319 72.3336 35.3913 72.3336C37.4638 72.3336 38.5369 71.2814 39.3993 70.4361C40.1531 69.6968 40.6514 69.2085 41.7664 69.2085C42.1444 69.2085 42.4519 69.266 42.7205 69.3684C42.2936 69.7936 41.9809 70.2561 41.7883 70.7554C41.5289 71.4281 41.3634 72.5116 42.0492 73.8539C42.5837 74.8997 43.4303 75.5784 44.4977 75.8166C44.7818 75.8801 45.081 75.9116 45.3955 75.9116C46.9735 75.9116 48.9318 75.1108 51.2398 73.5269C52.5472 77.089 55.8785 79.6391 59.8708 79.8198C62.5198 79.9398 65.187 79.9998 67.8547 79.9998C70.5218 79.9998 73.1895 79.9398 75.838 79.8198C79.8302 79.6389 83.1614 77.0889 84.4688 73.5267C86.7768 75.1108 88.7351 75.9115 90.3131 75.9115C90.6275 75.9115 90.927 75.8798 91.2109 75.8165C92.2783 75.5782 93.1249 74.8996 93.6594 73.8536C94.3452 72.5114 94.1797 71.428 93.9202 70.7553C93.623 69.9836 93.0432 69.2984 92.1889 68.7062ZM25.4562 8.35282C25.0958 7.68468 24.5798 6.54466 24.2245 4.97197C24.0956 4.40118 24.5042 4.10961 24.6323 4.03399C24.7872 3.94258 25.1909 3.76773 25.5908 4.12289C26.2963 4.74947 27.3232 5.46886 29.016 5.46886C31.088 5.46886 32.1609 4.41665 33.0231 3.57116C33.7767 2.83209 34.2747 2.3438 35.3892 2.3438C36.5039 2.3438 37.0018 2.83209 37.7557 3.57116C38.6176 4.41665 39.6907 5.46886 41.7629 5.46886C43.8352 5.46886 44.9083 4.41665 45.7704 3.57116C46.5241 2.83209 47.0221 2.3438 48.1368 2.3438C49.2517 2.3438 49.7497 2.83209 50.5034 3.57116C51.3658 4.41665 52.4389 5.46886 54.5112 5.46886C56.5834 5.46886 57.6564 4.41665 58.5186 3.57116C59.2723 2.83209 59.7703 2.3438 60.8852 2.3438C62.0004 2.3438 62.4983 2.83209 63.2521 3.57116C64.1146 4.41665 65.1878 5.46886 67.2602 5.46886C68.953 5.46886 69.9801 4.74962 70.6858 4.12289C71.0852 3.76789 71.4898 3.94242 71.6448 4.03414C71.7731 4.10992 72.1818 4.40149 72.0526 4.97244C71.6973 6.5456 71.181 7.68578 70.8215 8.35266C55.7654 6.517 40.5107 6.517 25.4562 8.35282ZM74.4361 77.5298C72.8582 77.5893 71.2754 77.6292 69.6905 77.6457C70.3912 72.505 71.6915 67.3152 73.5653 62.1986C73.7878 61.5907 73.4756 60.9178 72.8678 60.6951C72.2598 60.4726 71.5871 60.7849 71.3643 61.3926C69.3935 66.7746 68.0361 72.2395 67.3238 77.6531C65.7484 77.6482 64.1742 77.622 62.6037 77.5748C64.192 66.0239 68.4286 57.1438 69.8918 54.3403C71.3663 54.3575 72.839 54.395 74.3073 54.4493C73.9686 55.1414 73.5695 55.9905 73.137 56.9786C72.8775 57.5714 73.1475 58.2625 73.7404 58.5221C73.8934 58.5891 74.0528 58.6208 74.2098 58.6208C74.6612 58.6208 75.0914 58.3585 75.2839 57.9186C75.9014 56.5084 76.4453 55.3962 76.8333 54.6389C78.2213 54.9114 79.4632 55.57 80.4449 56.4995C78.5833 60.6673 75.6702 68.3049 74.4361 77.5298ZM37.7588 68.7621C37.0049 69.5012 36.5066 69.9896 35.3916 69.9896C34.2765 69.9896 33.7784 69.5014 33.0246 68.7623C32.1621 67.9168 31.089 66.8646 29.0166 66.8646C27.3253 66.8646 26.2981 67.5835 25.5912 68.2106C25.1915 68.5656 24.7878 68.391 24.6331 68.2995C24.5047 68.2237 24.0959 67.932 24.2253 67.3602C24.6072 65.6688 25.1758 64.4767 25.5361 63.8361C31.0548 64.5072 36.6292 64.938 42.1511 65.1147C42.0612 65.3983 42.0139 65.6914 42.0139 65.9924C42.0139 66.2964 42.062 66.5927 42.1539 66.879C42.0284 66.8705 41.9003 66.8647 41.767 66.8647C39.6943 66.8646 38.6212 67.9168 37.7588 68.7621ZM45.0088 73.5291C44.7499 73.4713 44.4166 73.3347 44.1369 72.7874C43.8205 72.1678 43.8931 71.8123 43.9756 71.5989C44.2183 70.97 45.1033 70.3389 46.4677 69.8218C46.9274 69.6476 47.2296 69.2051 47.2245 68.7135C47.2193 68.222 46.9079 67.7859 46.4446 67.6215C45.0107 67.1124 44.3577 66.4201 44.3577 65.9921C44.3577 65.5641 45.0108 64.8717 46.4446 64.3627C46.9079 64.1983 47.2193 63.7622 47.2245 63.2706C47.2295 62.779 46.9274 62.3365 46.4677 62.1625C45.1033 61.6454 44.2183 61.0145 43.9756 60.3854C43.8933 60.172 43.8205 59.8165 44.1369 59.1971C44.4166 58.6496 44.7499 58.513 45.0088 58.4552C45.5608 58.3319 47.1907 58.348 50.6861 60.9396C50.6756 61.0571 50.6653 61.1746 50.6591 61.2934C50.4945 64.4111 50.4945 67.5727 50.6591 70.6904C50.6653 70.8092 50.6756 70.9267 50.6861 71.0442C47.191 73.636 45.5616 73.6522 45.0088 73.5291ZM52.9994 61.4171C53.1982 57.6483 56.1982 54.6772 59.9774 54.5061C60.0161 54.5043 60.0552 54.5033 60.0939 54.5014C58.4859 57.8057 55.4834 64.7533 53.799 73.5358C53.338 72.641 53.0558 71.6364 52.9994 70.5675C52.8394 67.5316 52.8394 64.453 52.9994 61.4171ZM55.7576 75.911C57.4954 65.2297 61.4097 57.0166 62.7637 54.405C64.2631 54.3612 65.7661 54.3365 67.2698 54.3315C65.4201 58.0914 61.7004 66.6841 60.2503 77.4893C60.1594 77.4854 60.0683 77.4826 59.9774 77.4785C58.3805 77.4062 56.9237 76.8324 55.7576 75.911ZM82.7101 70.5673C82.5311 73.9633 80.077 76.7107 76.8283 77.3464C77.9397 69.4814 80.289 62.8464 82.0387 58.7118C82.4233 59.539 82.6592 60.4515 82.7101 61.417C82.8701 64.453 82.8701 67.5315 82.7101 70.5673ZM91.5728 72.7872C91.2931 73.3347 90.9598 73.4713 90.7009 73.5291C90.1486 73.6521 88.5189 73.6361 85.0236 71.0447C85.0341 70.9272 85.0444 70.8095 85.0507 70.6908C85.2152 67.573 85.2152 64.4114 85.0507 61.2937C85.0444 61.1749 85.0341 61.0574 85.0236 60.9399C88.5185 58.3485 90.1481 58.3321 90.7009 58.4555C90.9598 58.5133 91.2931 58.6499 91.5728 59.1971C91.8892 59.8166 91.8164 60.1721 91.7339 60.3856C91.4913 61.0145 90.6062 61.6456 89.2418 62.1625C88.7823 62.3367 88.4801 62.7792 88.4851 63.2708C88.4903 63.7623 88.8017 64.1984 89.265 64.3628C90.699 64.8719 91.352 65.5643 91.352 65.9922C91.352 66.4202 90.6989 67.1126 89.265 67.6216C88.8017 67.786 88.4903 68.2221 88.4851 68.7137C88.4799 69.2053 88.7821 69.6478 89.2418 69.822C90.6062 70.3389 91.4913 70.97 91.7341 71.5991C91.8163 71.8123 91.8892 72.1678 91.5728 72.7872Z" fill="#3BB77E"/>
<path d="M40.2971 32.2232C45.5003 31.5321 50.776 31.5321 55.9789 32.2232C56.0313 32.2301 56.0833 32.2335 56.1347 32.2335C56.7133 32.2335 57.2166 31.8051 57.2949 31.2159C57.3802 30.5743 56.9291 29.9851 56.2875 29.8999C50.8804 29.1818 45.3964 29.1818 39.9885 29.8999C39.3469 29.9851 38.8958 30.5743 38.9811 31.2159C39.0664 31.8574 39.6555 32.3082 40.2971 32.2232Z" fill="#3BB77E"/>
<path d="M57.2949 41.2713C57.2098 40.6298 56.6201 40.1791 55.9789 40.264C50.776 40.9551 45.5003 40.9551 40.2971 40.264C39.6558 40.1788 39.0663 40.6298 38.9811 41.2713C38.8958 41.9129 39.3469 42.5021 39.9885 42.5873C42.6923 42.9464 45.415 43.1259 48.1379 43.1259C50.8609 43.1259 53.5837 42.9464 56.2874 42.5873C56.9293 42.5021 57.3802 41.9129 57.2949 41.2713Z" fill="#3BB77E"/>
<path d="M60.4695 36.2434C60.4695 35.5962 59.9449 35.0715 59.2976 35.0715H36.9785C36.3312 35.0715 35.8066 35.5962 35.8066 36.2434C35.8066 36.8906 36.3312 37.4153 36.9785 37.4153H59.2976C59.9448 37.4153 60.4695 36.8906 60.4695 36.2434Z" fill="#3BB77E"/>
</g>
</g>
<defs>
<clipPath id="clip0_6511_722">
<rect x="18" width="80" height="80" rx="10" fill="white"/>
</clipPath>
<clipPath id="clip1_6511_722">
<rect width="80" height="80" fill="white" transform="translate(18)"/>
</clipPath>
</defs>
</svg>
