<svg width="116" height="87" viewBox="0 0 116 87" fill="none" xmlns="http://www.w3.org/2000/svg">
<g clip-path="url(#clip0_6511_735)">
<g clip-path="url(#clip1_6511_735)">
<g clip-path="url(#clip2_6511_735)">
<mask id="mask0_6511_735" style="mask-type:luminance" maskUnits="userSpaceOnUse" x="18" y="0" width="80" height="80">
<path d="M98 0H18V80H98V0Z" fill="white"/>
</mask>
<g mask="url(#mask0_6511_735)">
<path d="M70.5 50.5L68.5 55L70 58V59.5L70.5 61.5C71.1667 61.8333 72.6 62.5 73 62.5C73.4 62.5 74.5 62.8333 75 63C75 63.5 74.9 64.6 74.5 65C74.1 65.4 73.3333 65.5 73 65.5C72.6667 66.1667 72 67.6 72 68C72 68.5 71.5 70 71.5 70.5C71.5 70.9 70.5 72.6667 70 73.5L70.5 78C72 78.1667 75.1 78.5 75.5 78.5H83.5C86.1667 77.6667 91.5 75.9 91.5 75.5C91.5 75.1 93.5 74.3333 94.5 74L96.5 70L94.5 65.5L89 54.5L88 54C87.3333 54.1667 85.9 54.4 85.5 54C85 53.5 83.5 53.5 83.5 53C83.5 52.5 82.5 52.5 82.5 52C82.5 51.5 82 51 82 50.5V48.5C82 48 82.5 47.5 82.5 47C82.5 46.6 83.5 46.1667 84 46V44.5C83.6667 43.8333 83 42.4 83 42C83 41.5 81.5 40.5 81 40.5C80.5 40.5 79 40 78.5 40C78.1 40 76.6667 40.6667 76 41L74 44.5L70.5 50.5Z" fill="#FDC040"/>
<path d="M50.5 30L42 29.5L41.5 31.5V36L42 43C42.5 43.1667 43.7 43.6 44.5 44C45.5 44.5 48.5 44 49 44C49.5 44 56 43.5 56.5 43C57 42.5 57.5 41.5 58 41C58.5 40.5 58.5 39 58.5 38.5V34.5C58.5 33.5 58 32 58 31.5C58 31.1 57 30.3333 56.5 30H50.5Z" fill="#FDC040"/>
<path d="M97.4871 68.1252L89.687 52.6062C89.5223 52.2786 89.2137 52.0469 88.8532 51.9801C88.4926 51.9134 88.1215 52.0194 87.8506 52.2664C87.2998 52.7684 86.5829 53.045 85.8323 53.045C84.1737 53.045 82.8244 51.695 82.8244 50.0356C82.8244 48.6018 83.8441 47.3606 85.2493 47.0838C85.6087 47.0131 85.9143 46.7784 86.0754 46.4495C86.2365 46.1205 86.2345 45.7352 86.0701 45.4079L84.1059 41.498C83.1633 39.6239 81.2746 38.4597 79.1769 38.4595C79.1767 38.4595 79.1771 38.4595 79.1769 38.4595C78.9741 38.4595 78.7738 38.4736 78.5755 38.495C78.5241 35.6001 78.4495 32.7015 78.3506 29.8575C78.2514 26.9842 77.4066 24.1778 75.9072 21.7415C75.5679 21.1902 74.8461 21.0184 74.295 21.3578C73.7439 21.697 73.572 22.4189 73.9112 22.97C75.1979 25.0608 75.9231 27.4705 76.0083 29.9388C76.1156 33.019 76.1944 36.1637 76.2454 39.298C75.4087 39.8222 74.7129 40.5725 74.2479 41.4967L68.5146 52.9045C66.295 49.4551 63.1873 46.7793 59.5618 46.7793C53.238 46.7793 48.489 54.9185 47.2831 61.1071H47.2073C46.5889 57.9336 45.0387 54.2481 42.8222 51.4092C42.8063 49.1762 42.806 46.933 42.8196 44.6852C44.0304 44.7093 45.244 44.7251 46.4609 44.7251C49.5015 44.7251 52.5545 44.6502 55.5833 44.5011C57.6366 44.4001 59.3031 42.845 59.5459 40.8036C59.8737 38.047 59.8737 35.2515 59.5459 32.4949C59.3031 30.4535 57.6368 28.8985 55.584 28.7975C51.4856 28.596 47.3353 28.5317 43.2268 28.6033C43.8377 23.7922 46.8189 19.6548 51.2528 17.561H67.8727C69.0382 18.1113 70.1258 18.8182 71.107 19.669C71.3287 19.8613 71.602 19.9555 71.8741 19.9555C72.2022 19.9555 72.5284 19.8187 72.7601 19.5515C73.184 19.0626 73.1314 18.3224 72.6424 17.8983C72.1145 17.4405 71.5585 17.02 70.9807 16.6344C71.9941 15.8386 72.6471 14.6035 72.6471 13.218C72.6471 11.2292 71.303 9.54964 69.476 9.03682V4.89271C69.4755 2.19487 67.2808 0 64.5828 0H54.5419C51.8441 0 49.6492 2.19487 49.6492 4.89271V9.03714C47.822 9.54996 46.4779 11.2295 46.4779 13.2183C46.4779 14.6036 47.1306 15.8385 48.1437 16.6343C46.3745 17.8143 44.8396 19.3285 43.6307 21.1049C41.8705 23.6914 40.8828 26.7181 40.7746 29.8575C40.5547 36.202 40.4514 42.6153 40.4658 48.9629C38.8255 47.6193 36.9583 46.7795 34.9284 46.7795C32.079 46.7795 29.1957 48.524 26.8096 51.6917C26.42 52.2086 26.5235 52.9434 27.0405 53.3328C27.5575 53.7223 28.2922 53.6189 28.6816 53.1019C29.801 51.6159 32.101 49.1232 34.9286 49.1232C37.1309 49.1232 39.4445 50.6656 41.4435 53.4659C43.0263 55.6835 44.2404 58.4577 44.8157 61.1073H25.0402C25.3395 59.7323 25.8156 58.3074 26.4431 56.9204C26.7099 56.3307 26.4481 55.6364 25.8584 55.3696C25.2689 55.1028 24.5745 55.3646 24.3077 55.9543C23.5381 57.6554 22.9753 59.4166 22.6512 61.1071H21.0422C19.3657 61.1071 18.002 62.4709 18.002 64.1473C18.002 65.8236 19.3659 67.1875 21.0422 67.1875H21.6181C21.8126 68.9828 22.1406 70.7721 22.4614 72.5118C22.69 73.7515 22.9264 75.0335 23.1061 76.2829C23.3495 77.97 24.6983 79.2826 26.3867 79.4753C29.4593 79.8245 32.1924 79.9992 34.9267 79.9992C37.6569 79.9992 40.3882 79.8252 43.4583 79.4769C44.0187 79.4131 44.5401 79.225 44.9981 78.9436C46.194 79.6366 47.5415 79.9997 48.9445 79.9997H59.5634L59.5604 79.9989C62.2954 79.9991 65.03 79.8245 68.1041 79.4752C68.9182 79.3823 69.6518 79.0272 70.2223 78.497C73.1217 79.498 76.1376 79.99 79.1402 79.99C85.2471 79.99 91.2961 77.9614 96.1833 74.0749C97.9605 72.6629 98.509 70.1607 97.4871 68.1252ZM51.993 4.89271C51.993 3.48723 53.1364 2.34378 54.5419 2.34378H64.5828C65.9883 2.34378 67.1317 3.48723 67.1317 4.89271V8.8751H51.993V4.89271ZM50.8211 11.2189H68.3036C69.4062 11.2189 70.3029 12.1158 70.3029 13.2181C70.3029 14.3206 69.406 15.2175 68.3036 15.2175H50.8211C49.7186 15.2175 48.8217 14.3206 48.8217 13.2181C48.8217 12.1158 49.7187 11.2189 50.8211 11.2189ZM55.4685 31.1388C56.3751 31.1833 57.111 31.8702 57.2182 32.7719C57.5241 35.3449 57.5241 37.9542 57.2182 40.527C57.111 41.4288 56.3749 42.1158 55.4679 42.1603C51.2717 42.3669 47.0296 42.4272 42.8388 42.3436C42.879 38.5428 42.961 34.7362 43.0847 30.9505C47.201 30.8749 51.3609 30.9369 55.4685 31.1388ZM76.3414 42.5499C76.8917 41.4563 77.9513 40.8034 79.1761 40.8034C80.4011 40.8036 81.4614 41.4569 82.0116 42.5508L83.3816 45.2777C81.6397 46.1779 80.4807 47.9976 80.4807 50.0357C80.4807 52.9875 82.8813 55.3889 85.8323 55.3889C86.6587 55.3889 87.4628 55.2002 88.1886 54.8438L94.7452 67.8886C94.7382 67.8942 94.7318 67.9005 94.7247 67.9061C91.4284 70.5279 87.4868 72.2815 83.3262 72.9774C79.5755 73.6048 75.7059 73.3654 72.0701 72.2929C72.3779 70.6218 72.6862 68.9077 72.8723 67.1875H73.4489C75.1253 67.1875 76.489 65.8237 76.489 64.1473C76.489 62.4709 75.1253 61.1071 73.4489 61.1071H71.8401C71.484 59.2798 70.8191 57.2827 69.8957 55.3749L76.3414 42.5499ZM53.0463 53.4663C55.0454 50.6656 57.3593 49.1232 59.5615 49.1232C61.7643 49.1232 64.0783 50.6656 66.0772 53.4663C67.6599 55.6836 68.8738 58.4579 69.449 61.1074H49.674C50.2492 58.4582 51.4633 55.6839 53.0463 53.4663ZM20.3457 64.1476C20.3457 63.7636 20.6582 63.4512 21.0422 63.4512H73.4489C73.8329 63.4512 74.1453 63.7636 74.1453 64.1476C74.1453 64.5315 73.8329 64.844 73.4489 64.844H21.0422C20.6581 64.8439 20.3457 64.5315 20.3457 64.1476ZM46.5328 77.1062C46.6345 76.8447 46.7101 76.5698 46.7514 76.2828C46.8609 75.5145 46.9909 74.599 47.1268 73.6221C47.1362 73.5559 47.1412 73.5193 47.2451 73.5193C47.3492 73.5193 47.3542 73.5559 47.3634 73.6212C47.4995 74.5992 47.6295 75.5146 47.7392 76.2842C47.8078 76.7606 47.9675 77.2056 48.1961 77.6056C47.6161 77.5279 47.0568 77.36 46.5328 77.1062ZM67.8388 77.1468C61.8879 77.8231 57.2499 77.8236 51.2972 77.1484C50.6592 77.0757 50.15 76.5832 50.0592 75.952C49.95 75.1859 49.8205 74.2732 49.6845 73.297C49.5095 72.0479 48.5062 71.1755 47.245 71.1757C45.9837 71.1757 44.9806 72.048 44.8055 73.298C44.6698 74.2732 44.5402 75.186 44.4312 75.9507C44.3402 76.5832 43.831 77.0757 43.1935 77.1484C37.2397 77.8236 32.6017 77.8231 26.6519 77.1468C26.0214 77.075 25.5172 76.5821 25.4258 75.9489C25.2395 74.6542 24.9989 73.349 24.7661 72.0869C24.4688 70.4747 24.1655 68.8192 23.9764 67.1877H70.5138C70.3244 68.8236 70.0204 70.4836 69.7224 72.1002C69.4905 73.3584 69.2507 74.6592 69.0644 75.9498C68.9732 76.5828 68.469 77.075 67.8388 77.1468ZM94.7247 72.2405C88.1628 77.4586 79.3102 79.0098 71.3615 76.4061C71.3687 76.3654 71.3784 76.3257 71.3843 76.2848C71.4641 75.7318 71.5559 75.1724 71.6521 74.6132C74.1006 75.3104 76.642 75.664 79.188 75.664C80.7011 75.664 82.2158 75.5395 83.7129 75.2892C88.0426 74.5649 92.1541 72.7918 95.651 70.1504C95.696 70.9393 95.3682 71.7293 94.7247 72.2405Z" fill="#3BB77E"/>
<path d="M80.2693 67.7179C81.059 68.8664 82.2487 69.6386 83.6191 69.8924C83.9398 69.9518 84.2612 69.9811 84.5802 69.9811C85.6255 69.9811 86.6457 69.6664 87.5257 69.0614C88.6743 68.2718 89.4465 67.0821 89.7002 65.7116C89.9541 64.3411 89.6588 62.9538 88.8693 61.8052C88.0796 60.6566 86.8899 59.8844 85.5194 59.6307C84.1485 59.3769 82.7616 59.6721 81.613 60.4616C80.4644 61.2513 79.6923 62.441 79.4385 63.8114C79.1844 65.1821 79.4796 66.5694 80.2693 67.7179ZM81.7429 64.2382C81.8827 63.4832 82.3082 62.8278 82.9408 62.3928C83.4255 62.0596 83.9874 61.8863 84.5632 61.8863C84.739 61.8863 84.9162 61.9025 85.0926 61.9352C85.8476 62.075 86.5029 62.5003 86.938 63.1332C87.373 63.7658 87.5355 64.53 87.3958 65.285C87.256 66.04 86.8305 66.6953 86.1979 67.1303C85.5651 67.5653 84.8007 67.7278 84.0462 67.5882C83.2912 67.4483 82.6358 67.023 82.2007 66.3902C81.7657 65.7574 81.603 64.9932 81.7429 64.2382Z" fill="#3BB77E"/>
<path d="M75.3464 60.6886C75.5801 60.7319 75.8145 60.7533 76.0472 60.7533C76.8092 60.7533 77.5529 60.5237 78.1945 60.0828C79.0318 59.507 79.5948 58.6397 79.7798 57.6406C79.965 56.6414 79.7497 55.63 79.174 54.7925C78.5984 53.955 77.7309 53.392 76.7318 53.207C74.6692 52.8253 72.6803 54.1925 72.2984 56.2551C71.9162 58.3178 73.2837 60.3067 75.3464 60.6886ZM74.6028 56.6819C74.7494 55.89 75.5131 55.3647 76.305 55.5117C76.6886 55.5828 77.0215 55.7989 77.2426 56.1205C77.4637 56.442 77.5462 56.8303 77.4753 57.2139C77.4042 57.5975 77.1881 57.9306 76.8665 58.1515C76.5451 58.3726 76.1572 58.4553 75.7731 58.3842C74.9812 58.2373 74.4562 57.4737 74.6028 56.6819Z" fill="#3BB77E"/>
</g>
</g>
</g>
</g>
<defs>
<clipPath id="clip0_6511_735">
<rect x="18" width="80" height="80" rx="10" fill="white"/>
</clipPath>
<clipPath id="clip1_6511_735">
<rect width="80" height="80" fill="white" transform="translate(18)"/>
</clipPath>
<clipPath id="clip2_6511_735">
<rect width="80" height="80" fill="white" transform="translate(18)"/>
</clipPath>
</defs>
</svg>
