<svg width="116" height="87" viewBox="0 0 116 87" fill="none" xmlns="http://www.w3.org/2000/svg">
<g clip-path="url(#clip0_6511_750)">
<g clip-path="url(#clip1_6511_750)">
<g clip-path="url(#clip2_6511_750)">
<mask id="mask0_6511_750" style="mask-type:luminance" maskUnits="userSpaceOnUse" x="18" y="0" width="80" height="80">
<path d="M98 0H18V80H98V0Z" fill="white"/>
</mask>
<g mask="url(#mask0_6511_750)">
<path d="M43 69.5L36 71L34.5 72L33 74L32 75.5L35 76.5C36.5 77 38.5 77.5 39.5 78C40.3 78.4 48.1667 78.5 52 78.5C68.8 78.1 81.6667 66.3333 86 60.5L92 50.5L94.5 41L95.5 27.5C94.6667 24 93 16.9 93 16.5C93 16.1 92 14.6667 91.5 14L88.5 14.5L87.5 18V19C87.3333 20 87 22.1 87 22.5C87 22.9 85.6667 26.3333 85 28L82.5 35L77.5 43.5L70 53L63 59.5L52.5 65.5L43 69.5Z" fill="#FDC040"/>
<path d="M93.5933 13.6286L90.7415 3.50559C90.3478 2.10808 89.1608 1.10445 87.7174 0.94862L85.5488 0.714478C84.5525 0.606628 83.5533 0.929082 82.8076 1.59837C82.0617 2.26767 81.6336 3.22643 81.6329 4.22865L81.6279 13.4379C80.4403 17.6728 78.8714 21.7877 76.9515 25.7328C76.1784 23.9509 75.2393 22.2339 74.1366 20.6077C73.015 18.9561 71.7672 17.4176 70.428 16.0352C67.863 13.387 63.9472 12.4827 60.4511 13.7321C58.0089 14.6043 55.4743 15.8065 52.9154 17.3035C52.7983 13.3569 51.8805 9.99548 51.0687 7.75612C50.0272 4.88294 48.5967 2.31378 47.3349 1.05115C45.5601 -0.723673 42.4259 -0.0629774 40.7226 1.63964C39.2878 3.07419 38.5237 5.66133 41.0926 8.23128C42.5051 9.6438 43.6766 12.5748 44.4597 16.6034C42.3218 15.4291 40.2087 14.4633 38.1614 13.7322C34.6673 12.4834 30.7509 13.3873 28.1849 16.0349C27.3923 16.8525 26.6254 17.7327 25.9061 18.6506C25.5068 19.1602 25.5962 19.8972 26.1057 20.2964C26.6154 20.6956 27.3521 20.6065 27.7514 20.0968C28.4203 19.2433 29.1324 18.4259 29.8683 17.6669C31.796 15.6777 34.7415 15 37.3727 15.9402C39.7163 16.777 42.16 17.9404 44.636 19.3978C47.5167 21.0929 51.0956 21.0929 53.9766 19.3978C56.4519 17.9406 58.8956 16.7773 61.2398 15.9402C63.8721 14.9995 66.8174 15.6774 68.744 17.6667C69.9894 18.9525 71.1512 20.3851 72.1966 21.9246C73.593 23.9842 74.7092 26.1989 75.5265 28.5122C72.1206 34.82 67.7971 40.6418 62.6828 45.7561C54.951 53.489 45.5929 59.4197 35.3867 63.0945C28.99 59.1367 24.4045 52.9792 22.4482 45.6954C20.4457 38.2391 21.4319 30.4774 25.2256 23.8398C25.5468 23.2777 25.3516 22.5615 24.7895 22.2403C24.2276 21.9191 23.5114 22.1145 23.19 22.6764C19.0877 29.8542 18.0201 38.245 20.1843 46.303C22.1314 53.5528 26.4913 59.7693 32.5717 64.0441C31.9022 64.2548 31.23 64.4572 30.5541 64.6486C30.5516 64.6493 30.5491 64.6502 30.5466 64.6508L30.5429 64.6519L30.5407 64.6529C30.3076 64.7194 30.0985 64.8567 29.9449 65.0497L25.8317 70.2196C25.4647 70.6809 25.4972 71.3428 25.9077 71.7658L30.5483 76.5493C30.6664 76.6711 30.8086 76.7633 30.9635 76.8238C30.9672 76.8253 30.9704 76.8278 30.9743 76.8294C36.5238 78.9362 42.3713 80 48.2505 80C51.5356 80 54.8311 79.6677 58.0886 78.9995C67.4115 77.0873 75.9125 72.5037 82.6725 65.7446C87.5323 60.8848 91.2366 55.1935 93.6822 48.8288C93.9144 48.2246 93.6128 47.5464 93.0084 47.3141C92.4035 47.0817 91.7256 47.3836 91.4937 47.9879C89.1665 54.0441 85.641 59.4605 81.0148 64.0867C74.5804 70.5205 66.4896 74.8829 57.6177 76.7028C49.5552 78.3566 41.2558 77.848 33.4995 75.2418L36.8718 71.7656C37.3179 71.3059 37.3122 70.5735 36.8596 70.1207L33.0809 66.3408C44.8153 62.6823 55.5891 56.167 64.3414 47.4133C73.4311 38.3237 80.1035 27.0659 83.6765 14.8073L91.6594 15.1347C95.038 24.1996 95.4899 34.2931 92.922 43.6467C92.7505 44.271 93.1178 44.9161 93.7421 45.0875C94.3662 45.2593 95.0114 44.8918 95.1829 44.2674C97.9453 34.2047 97.3799 23.3269 93.5933 13.6286ZM47.0748 17.9518C46.2134 12.4093 44.7601 8.58249 42.7511 6.57337C41.5585 5.3803 41.4305 4.24757 42.3808 3.29755C43.3429 2.33535 45.0068 2.03821 45.6771 2.7086C47.399 4.43185 50.596 10.8406 50.583 18.203C49.4169 18.4232 48.2066 18.3407 47.0748 17.9518ZM31.3896 74.0494L28.3079 70.8728L30.9618 67.5373L34.3851 70.9617L31.3896 74.0494ZM84.3734 3.34335C84.6287 3.11452 84.9572 3.00839 85.2972 3.04543L87.4656 3.27958C87.952 3.3321 88.3521 3.67034 88.4848 4.14144L90.9121 12.7575L83.9731 12.4729L83.9775 4.2299C83.9778 3.88697 84.1183 3.57218 84.3734 3.34335Z" fill="#3BB77E"/>
<path d="M86.2855 17.7866C84.5242 30.3703 78.2388 42.6161 68.5864 52.2685C60.5536 60.3011 50.8075 65.9847 40.4014 68.705C39.7749 68.8688 39.4 69.5094 39.5638 70.1357C39.7015 70.6627 40.1768 71.0118 40.6971 71.0118C40.7953 71.0118 40.895 70.9993 40.9943 70.9733C51.803 68.1477 61.9174 62.253 70.2445 53.9262C80.2548 43.9159 86.7763 31.1967 88.6075 18.1114C88.6972 17.4702 88.2502 16.8777 87.6089 16.788C86.9682 16.6984 86.375 17.1453 86.2855 17.7866Z" fill="#3BB77E"/>
</g>
</g>
</g>
</g>
<defs>
<clipPath id="clip0_6511_750">
<rect x="18" width="80" height="80" rx="10" fill="white"/>
</clipPath>
<clipPath id="clip1_6511_750">
<rect width="80" height="80" fill="white" transform="translate(18)"/>
</clipPath>
<clipPath id="clip2_6511_750">
<rect width="80" height="80" fill="white" transform="translate(18)"/>
</clipPath>
</defs>
</svg>
