<svg width="116" height="87" viewBox="0 0 116 87" fill="none" xmlns="http://www.w3.org/2000/svg">
<g clip-path="url(#clip0_6511_763)">
<g clip-path="url(#clip1_6511_763)">
<g clip-path="url(#clip2_6511_763)">
<path d="M88 78C92.9706 78 97 73.9706 97 69C97 64.0294 92.9706 60 88 60C83.0294 60 79 64.0294 79 69C79 73.9706 83.0294 78 88 78Z" fill="#FDC040"/>
<path d="M20 35L21 50.5L30 59.5L31 55L32 38.5V23.5L30 21.5L28 20.5H23L20 22.5V26V35Z" fill="#FDC040"/>
<path d="M67.7551 31.367L68.4729 30.0004L66.1161 28.7624L65.3983 30.1297C64.0921 32.6212 61.9271 34.5547 59.305 35.5729V23.7451C62.388 22.7926 64.977 20.6731 66.5192 17.8384L67.1349 16.6987L64.791 15.4335L64.176 16.5719C63.1045 18.5412 61.3829 20.0776 59.305 20.9182V12.0715H56.6419V20.9182C54.564 20.0776 52.8423 18.5412 51.7715 16.5719L51.1565 15.4335L48.8126 16.6987L49.4277 17.8384C50.9699 20.6731 53.5588 22.7926 56.6419 23.7451V35.5729C54.0198 34.5547 51.8554 32.6212 50.5492 30.1297L49.8314 28.7624L47.4746 30.0004L48.1924 31.367C49.9602 34.7407 53.0023 37.2698 56.6419 38.392V50.2198C54.0198 49.2016 51.8554 47.268 50.5492 44.7766L49.8314 43.4093L47.4746 44.6472L48.1924 46.0139C49.9602 49.3876 53.0023 51.9167 56.6419 53.0389V71.9905H59.305V53.0389C62.9452 51.9167 65.9867 49.3876 67.7551 46.0139L68.4729 44.6472L66.1161 43.4093L65.3983 44.7766C64.0921 47.268 61.9271 49.2016 59.305 50.2198V38.392C62.9452 37.2698 65.9867 34.7407 67.7551 31.367Z" fill="#3BB77E"/>
<path d="M90.9957 59.3612C92.3135 58.2221 93.3031 56.7508 93.8609 55.1L91.3311 54.2587C90.8383 55.73 89.8793 57.0004 88.5985 57.8762V52.0176H85.9355V57.8762C84.6566 57.0017 83.6982 55.7339 83.2048 54.2652L80.675 55.1072C81.2328 56.7573 82.2224 58.2286 83.5403 59.3677C78.7121 61.1693 75.8664 66.169 76.7818 71.2403C77.6972 76.3109 82.1112 79.9999 87.2644 79.9999C92.4176 79.9999 96.8322 76.3109 97.7476 71.2403C98.663 66.169 95.8166 61.1693 90.9885 59.3677L90.9957 59.3612ZM87.267 77.3167C82.855 77.3167 79.2778 73.7402 79.2778 69.3275C79.2778 64.9155 82.855 61.3383 87.267 61.3383C91.6796 61.3383 95.2562 64.9155 95.2562 69.3275C95.2523 73.7382 91.6777 77.3122 87.267 77.3167Z" fill="#3BB77E"/>
<path d="M93.9155 1.58456C93.963 1.20552 93.8453 0.824525 93.5924 0.538453C93.3401 0.252382 92.9767 0.0878906 92.5944 0.0878906H88.5998C87.9594 0.0878906 87.4094 0.544305 87.291 1.17431L87.2683 1.29589L87.2462 1.17431C87.1278 0.544305 86.5778 0.0878906 85.9367 0.0878906H81.9421C81.5605 0.0878906 81.1971 0.252382 80.9441 0.538453C80.6919 0.824525 80.5742 1.20552 80.6217 1.58456L83.2737 22.8065V33.6428C83.1813 36.4138 82.7795 39.1659 82.0754 41.8478C81.9174 42.5402 81.9005 43.2587 82.026 43.9582C82.4285 46.1447 84.1384 47.8573 86.3242 48.263C86.6324 48.3163 86.9438 48.3436 87.2566 48.3442C88.6707 48.3462 90.0269 47.7857 91.0275 46.7871C92.0281 45.7878 92.5905 44.4322 92.5905 43.0181C92.5905 42.7593 92.5716 42.5012 92.5346 42.2457L92.2472 40.3498C91.6731 37.1673 91.3441 33.9457 91.2629 30.7131V22.8065L93.9155 1.58456ZM83.4512 2.75095H84.8315L88.5998 22.8481V27.0313L85.8932 22.2955L83.4512 2.75095ZM88.9808 45.0551C88.3709 45.5687 87.5628 45.7819 86.7787 45.6357C85.6988 45.4231 84.8555 44.5765 84.6481 43.496C84.5831 43.1429 84.5909 42.7808 84.6709 42.431C85.4218 39.5586 85.8464 36.6101 85.9367 33.6428V27.7373L88.6629 32.5069C88.8378 35.2701 89.157 38.0216 89.6186 40.7516L89.9034 42.6332C89.9222 42.7593 89.932 42.8874 89.9313 43.0155C89.9313 43.8022 89.5835 44.5492 88.9808 45.0551ZM89.6654 14.0943L88.5803 8.30724L88.657 8.3222L89.7051 2.75095H91.086L89.6654 14.0943Z" fill="#3BB77E"/>
<path d="M79.2792 22.7239C79.2941 19.1526 77.252 15.8914 74.0317 14.3459C73.4037 14.0638 73.1052 13.3408 73.3516 12.6978C74.8308 8.76691 73.4986 4.33215 70.0976 1.86738C66.6966 -0.597381 62.0674 -0.482953 58.7926 2.1463C58.3166 2.53575 57.6327 2.53575 57.1574 2.1463C55.1978 0.564459 52.6797 -0.15397 50.1798 0.156157C47.3419 0.505294 44.8219 2.13785 43.3421 4.58506C41.863 7.03162 41.5886 10.0224 42.5983 12.6978C42.8447 13.3408 42.5456 14.0638 41.9176 14.3459C39.354 15.5903 37.501 17.9394 36.8886 20.7227C36.2755 23.5054 36.9711 26.4155 38.7753 28.6216C39.1297 29.0663 39.1297 29.6969 38.7753 30.1423C35.9673 33.5732 35.9673 38.5086 38.7753 41.9395C39.1264 42.4056 39.1108 43.0513 38.7383 43.4999C36.5043 46.265 36.0382 50.06 37.5355 53.2835C39.0328 56.507 42.2336 58.5986 45.7873 58.6753L47.5382 70.9257C48.282 76.1179 52.7298 79.974 57.9746 79.974C63.2202 79.974 67.6679 76.1179 68.4117 70.9257L70.1626 58.6753C73.717 58.5986 76.9184 56.5064 78.4158 53.2816C79.9124 50.0561 79.4443 46.2605 77.2091 43.496C76.8365 43.0474 76.8209 42.4011 77.1714 41.9356C79.9801 38.5047 79.9801 33.5693 77.1714 30.1377C76.8177 29.693 76.8177 29.0624 77.1714 28.6176C78.5315 26.9539 79.2759 24.8727 79.2792 22.7239ZM75.1142 31.8288C76.0843 33.0179 76.6148 34.5049 76.6161 36.0393C76.622 37.5756 76.0901 39.0658 75.1129 40.251C73.9576 41.6931 73.968 43.7476 75.1383 45.1779C76.7461 47.1733 77.066 49.9144 75.9607 52.2264C74.8555 54.5383 72.5214 56.0103 69.9584 56.0122C69.701 56.0044 69.4435 55.9797 69.1893 55.9394C68.8415 55.8913 68.4897 55.9843 68.2102 56.1962C67.9312 56.4088 67.7485 56.7235 67.7017 57.0707L65.7766 70.5512C65.2194 74.432 61.8951 77.3135 57.9746 77.3135C54.0548 77.3135 50.7299 74.432 50.1733 70.5512L48.2547 57.0779C48.1214 56.4101 47.5291 55.9336 46.8484 55.9459C46.7886 55.9459 46.7294 55.9498 46.6703 55.9576C44.5533 56.193 42.4533 55.3887 41.0353 53.7991C38.8547 51.3707 38.7623 47.7175 40.8182 45.1818C41.9884 43.7515 41.9988 41.6976 40.8435 40.2549C39.8624 39.0697 39.3286 37.5782 39.3332 36.0393C39.3351 34.5049 39.865 33.0179 40.8351 31.8288C41.9962 30.4043 41.9962 28.3595 40.8351 26.9344C39.5471 25.359 39.051 23.2811 39.4892 21.2936C39.9268 19.3067 41.2505 17.6293 43.0814 16.7418C44.9486 15.8556 45.8225 13.6841 45.0884 11.7524C44.6827 10.6855 44.5611 9.5315 44.7341 8.40347C45.1983 5.46473 47.5434 3.18266 50.4945 2.80037C52.2812 2.57411 54.0834 3.08514 55.4865 4.21577C56.9428 5.37566 59.0071 5.37566 60.4635 4.21577C61.8652 3.08319 63.6675 2.57021 65.4554 2.79516C68.4059 3.17941 70.751 5.45953 71.2172 8.39826C71.3888 9.5263 71.2666 10.6797 70.8615 11.7466C70.1275 13.6789 71.0007 15.8504 72.8679 16.7359C74.6988 17.6241 76.0225 19.3015 76.4607 21.2884C76.8983 23.2753 76.4022 25.3538 75.1142 26.9292C73.9504 28.355 73.9504 30.403 75.1142 31.8288Z" fill="#3BB77E"/>
<path d="M18.2815 25.6892L20.5109 74.7173C20.6403 77.6645 23.0673 79.9869 26.0165 79.9869C28.9663 79.9869 31.3927 77.6645 31.5227 74.7173L33.7515 25.6892C33.8406 23.8714 33.1761 22.0977 31.9141 20.7864C31.7594 20.6238 31.5786 20.5003 31.4109 20.3553L32.6742 0.170343L30.0111 0.0052013L28.8278 18.9821C28.3447 18.8508 27.8486 18.7747 27.348 18.7546V0.087772H24.6849V18.7546C24.2116 18.7721 23.7415 18.8404 23.2832 18.9581L22.0219 0L19.3588 0.175544L20.6903 20.1485L20.8756 20.1368C20.6071 20.3345 20.3535 20.5516 20.1169 20.7864C18.8556 22.0984 18.1918 23.872 18.2815 25.6892ZM22.0446 22.627C22.7962 21.8351 23.841 21.3884 24.9326 21.3923H27.1003C28.1919 21.391 29.2368 21.837 29.9909 22.6257C30.7458 23.4143 31.145 24.478 31.0949 25.5683L30.4948 38.7022H26.0165V41.3653H30.3732L29.4038 62.6698H26.0165V65.3329H29.2829L28.8623 74.5977C28.7959 76.1217 27.5417 77.3225 26.0165 77.3225C24.4918 77.3225 23.237 76.1217 23.1714 74.5977L22.1447 52.0176H26.0165V49.3545H22.0219L21.1767 30.713H26.0165V28.05H21.0551L20.9419 25.5683C20.888 24.4773 21.2872 23.413 22.0446 22.627Z" fill="#3BB77E"/>
<path d="M81.9414 69.3274C81.9407 70.6381 82.4238 71.9027 83.2982 72.8786L85.2825 71.1023C84.6902 70.4405 84.4672 69.527 84.6876 68.6668C84.9074 67.806 85.542 67.1123 86.3794 66.8164L85.4925 64.3049C83.3665 65.0597 81.9446 67.0707 81.9414 69.3274Z" fill="#3BB77E"/>
</g>
</g>
</g>
<defs>
<clipPath id="clip0_6511_763">
<rect x="18" width="80" height="80" rx="10" fill="white"/>
</clipPath>
<clipPath id="clip1_6511_763">
<rect width="80" height="80" fill="white" transform="translate(18)"/>
</clipPath>
<clipPath id="clip2_6511_763">
<rect width="80" height="80" fill="white" transform="translate(18)"/>
</clipPath>
</defs>
</svg>
