<svg width="21" height="21" viewBox="0 0 21 21" fill="none" xmlns="http://www.w3.org/2000/svg">
<g clip-path="url(#clip0_6511_2388)">
<g clip-path="url(#clip1_6511_2388)">
<path d="M17.3385 8.6447C17.3385 6.88664 15.9191 5.46729 14.161 5.46729H5.93523C4.17717 5.46729 2.75781 6.88664 2.75781 8.6447V12.5157C2.75781 14.2737 4.17717 15.6931 5.93523 15.6931H14.161C15.9191 15.6931 17.3385 14.2737 17.3385 12.5157V8.6447ZM12.1449 10.7737L8.87072 12.5802C8.72555 12.6608 8.59652 12.5479 8.59652 12.3866V8.69309C8.59652 8.5318 8.72555 8.4189 8.87072 8.49954L12.1772 10.3866C12.3223 10.4834 12.2901 10.6931 12.1449 10.7737Z" fill="#3BB77E"/>
</g>
</g>
<defs>
<clipPath id="clip0_6511_2388">
<rect x="0.046875" y="0.580078" width="20" height="20" rx="10" fill="white"/>
</clipPath>
<clipPath id="clip1_6511_2388">
<rect width="20" height="20" fill="white" transform="translate(0.046875 0.580078)"/>
</clipPath>
</defs>
</svg>
