<svg width="17" height="17" viewBox="0 0 17 17" fill="none" xmlns="http://www.w3.org/2000/svg">
<path fill-rule="evenodd" clip-rule="evenodd" d="M6.87306 8.56843V14.2975C6.87306 14.3749 6.93758 14.4523 7.0279 14.4523H9.15693C9.23435 14.4523 9.31177 14.3878 9.31177 14.2975V8.46521H10.8473C10.9247 8.46521 10.9892 8.40069 11.0021 8.32327L11.1311 6.58133C11.144 6.49101 11.0666 6.41359 10.9763 6.41359H9.29887V5.17488C9.29887 4.87811 9.53112 4.64585 9.8279 4.64585H11.015C11.0924 4.64585 11.1698 4.58133 11.1698 4.49101V2.74908C11.1698 2.67166 11.1053 2.59424 11.015 2.59424H9.00209C7.8279 2.59424 6.87306 3.54908 6.87306 4.72327V6.41359H5.815C5.73758 6.41359 5.66016 6.47811 5.66016 6.56843V8.32327C5.66016 8.40069 5.72467 8.47811 5.815 8.47811H6.87306V8.56843Z" fill="white"/>
</svg>
