<svg width="31" height="39" viewBox="0 0 31 39" fill="none" xmlns="http://www.w3.org/2000/svg">
<g opacity="0.5" clip-path="url(#clip0_6511_998)">
<g clip-path="url(#clip1_6511_998)">
<g clip-path="url(#clip2_6511_998)">
<path d="M23.7775 22.6006C23.1633 21.9611 22.4225 21.6192 21.6374 21.6192C20.8586 21.6192 20.1114 21.9548 19.4719 22.5943L17.4711 24.5888C17.3065 24.5001 17.1419 24.4178 16.9836 24.3355C16.7556 24.2215 16.5403 24.1139 16.3567 23.9999C14.4825 22.8096 12.7793 21.2583 11.1457 19.2511C10.3543 18.2507 9.8224 17.4086 9.43617 16.5538C9.95537 16.079 10.4366 15.5851 10.9051 15.1102C11.0824 14.9329 11.2597 14.7493 11.437 14.572C12.7666 13.2424 12.7666 11.5201 11.437 10.1905L9.70843 8.46192C9.51215 8.26564 9.30953 8.06303 9.11958 7.86041C8.73968 7.46785 8.34078 7.06262 7.92922 6.68271C7.31505 6.07487 6.58057 5.75195 5.8081 5.75195C5.03563 5.75195 4.28849 6.07487 3.65532 6.68271C3.64899 6.68905 3.64899 6.68905 3.64266 6.69538L1.48988 8.86715C0.67942 9.67761 0.217205 10.6654 0.115898 11.8114C-0.0360631 13.6603 0.508464 15.3825 0.926356 16.5095C1.95209 19.2765 3.48437 21.8408 5.77011 24.5888C8.5434 27.9003 11.8802 30.5153 15.6919 32.3578C17.1482 33.0479 19.092 33.8647 21.2638 34.004C21.3968 34.0104 21.5361 34.0167 21.6627 34.0167C23.1253 34.0167 24.3537 33.4912 25.3161 32.4464C25.3224 32.4338 25.3351 32.4274 25.3414 32.4148C25.6707 32.0159 26.0506 31.655 26.4495 31.2687C26.7217 31.0091 27.0003 30.7369 27.2726 30.4519C27.8994 29.7998 28.2287 29.04 28.2287 28.2612C28.2287 27.476 27.8931 26.7226 27.2536 26.0894L23.7775 22.6006ZM26.0442 29.2679C26.0379 29.2679 26.0379 29.2742 26.0442 29.2679C25.7973 29.5338 25.544 29.7744 25.2718 30.0404C24.8602 30.4329 24.4423 30.8445 24.0497 31.3067C23.4102 31.9905 22.6568 32.3135 21.669 32.3135C21.574 32.3135 21.4727 32.3135 21.3778 32.3071C19.4972 32.1868 17.7497 31.4523 16.439 30.8255C12.8553 29.0906 9.70843 26.6276 7.09344 23.5061C4.93433 20.9037 3.4907 18.4977 2.53461 15.9143C1.94576 14.3377 1.73048 13.1094 1.82546 11.9507C1.88878 11.2099 2.1737 10.5957 2.69923 10.0702L4.85835 7.91106C5.1686 7.61981 5.49785 7.46151 5.82076 7.46151C6.21966 7.46151 6.54258 7.70212 6.74519 7.90473C6.75152 7.91106 6.75786 7.9174 6.76419 7.92373C7.15042 8.28464 7.51766 8.65821 7.9039 9.0571C8.10018 9.25972 8.30279 9.46233 8.50541 9.67128L10.234 11.3998C10.9051 12.071 10.9051 12.6915 10.234 13.3627C10.0503 13.5463 9.87306 13.7299 9.68944 13.9072C9.15757 14.4517 8.65104 14.9583 8.10018 15.4521C8.08751 15.4648 8.07485 15.4711 8.06852 15.4838C7.52399 16.0283 7.6253 16.5602 7.73927 16.9211C7.7456 16.9401 7.75193 16.9591 7.75827 16.9781C8.20782 18.0671 8.84099 19.0929 9.80341 20.3149L9.80974 20.3212C11.5573 22.474 13.3998 24.1519 15.4323 25.4372C15.6919 25.6018 15.9578 25.7348 16.2111 25.8615C16.439 25.9754 16.6543 26.0831 16.8379 26.197C16.8633 26.2097 16.8886 26.2287 16.9139 26.2414C17.1292 26.349 17.3318 26.3996 17.5408 26.3996C18.0663 26.3996 18.3955 26.0704 18.5032 25.9628L20.6686 23.7973C20.8839 23.582 21.2258 23.3224 21.6247 23.3224C22.0173 23.3224 22.3402 23.5694 22.5365 23.7846C22.5428 23.791 22.5428 23.791 22.5491 23.7973L26.0379 27.2861C26.6901 27.9319 26.6901 28.5967 26.0442 29.2679Z" fill="black"/>
<path d="M16.2817 11.1527C17.9406 11.4313 19.4476 12.2164 20.6506 13.4195C21.8536 14.6225 22.6324 16.1294 22.9173 17.7883C22.987 18.2062 23.3479 18.4975 23.7595 18.4975C23.8101 18.4975 23.8544 18.4912 23.9051 18.4848C24.3736 18.4088 24.6839 17.9656 24.6079 17.4971C24.266 15.4899 23.3162 13.6601 21.8663 12.2101C20.4163 10.7601 18.5865 9.81039 16.5793 9.46848C16.1108 9.39249 15.6739 9.70275 15.5916 10.165C15.5093 10.6272 15.8132 11.0767 16.2817 11.1527Z" fill="black"/>
<path d="M30.0338 17.2502C29.4702 13.9451 27.9126 10.9375 25.5193 8.54414C23.1259 6.15075 20.1183 4.59315 16.8132 4.02963C16.3509 3.94732 15.9141 4.26391 15.8317 4.72612C15.7558 5.19467 16.066 5.63155 16.5346 5.71387C19.4851 6.21407 22.1761 7.61338 24.3162 9.74716C26.4564 11.8873 27.8493 14.5783 28.3495 17.5288C28.4192 17.9467 28.7801 18.238 29.1916 18.238C29.2423 18.238 29.2866 18.2316 29.3373 18.2253C29.7995 18.1557 30.1161 17.7124 30.0338 17.2502Z" fill="black"/>
</g>
</g>
</g>
<defs>
<clipPath id="clip0_6511_998">
<rect width="30" height="38" fill="white" transform="translate(0.0683594 0.0166016)"/>
</clipPath>
<clipPath id="clip1_6511_998">
<rect width="30" height="38" fill="white" transform="translate(0.0683594 0.0166016)"/>
</clipPath>
<clipPath id="clip2_6511_998">
<rect width="30" height="30" fill="white" transform="translate(0.0683594 4.0166)"/>
</clipPath>
</defs>
</svg>
