<svg width="17" height="17" viewBox="0 0 17 17" fill="none" xmlns="http://www.w3.org/2000/svg">
<path d="M9.15738 11.3297C8.4477 11.2781 8.15093 10.9297 7.59609 10.5942C7.35093 11.8845 7.05416 13.1361 6.37028 13.9877C6.16383 14.2329 5.76383 14.1168 5.75093 13.7942C5.6477 11.7297 6.35738 10.091 6.70577 8.37484C6.0477 7.25226 6.78319 5.0071 8.18964 5.56194C9.91867 6.24581 6.69287 9.71678 8.86061 10.1555C11.1187 10.5942 12.0477 6.23291 10.6413 4.81355C8.61545 2.76194 4.75738 4.76194 5.2348 7.70387C5.32512 8.25871 5.78964 8.51678 5.73803 9.07162C5.69932 9.42 5.35093 9.61355 5.04125 9.47162C4.15093 9.05871 3.86706 8.14258 3.90577 6.96839C3.98319 4.74904 5.90577 3.18775 7.82835 2.96839C10.2671 2.69742 12.5509 3.85871 12.8606 6.15549C13.2219 8.72323 11.7638 11.5232 9.15738 11.3297Z" fill="white"/>
</svg>
