<svg width="17" height="17" viewBox="0 0 17 17" fill="none" xmlns="http://www.w3.org/2000/svg">
<path d="M14.125 5.23896C13.7637 5.4067 13.3508 5.50992 12.9637 5.57444C13.1573 5.54863 13.4282 5.20025 13.5444 5.07121C13.7121 4.86476 13.854 4.6196 13.9315 4.36154C13.9444 4.33573 13.9444 4.30992 13.9315 4.29702C13.9057 4.28412 13.8927 4.29702 13.8669 4.29702C13.4282 4.52928 12.9766 4.70992 12.4863 4.82605C12.4476 4.83896 12.4218 4.82605 12.396 4.80025C12.3573 4.74863 12.3186 4.70992 12.2798 4.67121C12.0734 4.50347 11.854 4.36154 11.6089 4.25831C11.2863 4.12928 10.925 4.06476 10.5766 4.09057C10.2411 4.11637 9.90565 4.2067 9.60888 4.36154C9.3121 4.51637 9.04113 4.73573 8.82178 5.0067C8.60242 5.27767 8.43468 5.60025 8.35726 5.94863C8.27984 6.28412 8.27984 6.6067 8.33146 6.94218C8.34436 6.99379 8.33146 7.0067 8.27984 6.99379C6.37017 6.72283 4.79597 6.05186 3.51855 4.59379C3.46694 4.52928 3.42823 4.52928 3.38952 4.59379C2.83468 5.4325 3.10565 6.77444 3.80242 7.44541C3.89275 7.53573 3.99597 7.62605 4.0992 7.70347C4.06049 7.71638 3.59597 7.66476 3.18307 7.44541C3.13146 7.4067 3.10565 7.4325 3.09275 7.49702C3.09275 7.58734 3.09275 7.66476 3.10565 7.76799C3.20887 8.6196 3.80242 9.4067 4.60242 9.70347C4.69275 9.74218 4.80888 9.78089 4.9121 9.79379C4.73146 9.8325 4.53791 9.85831 4.00887 9.8196C3.94436 9.8067 3.91855 9.84541 3.94436 9.89702C4.33146 10.9809 5.18307 11.3035 5.82823 11.4841C5.91855 11.497 5.99597 11.497 6.08629 11.5228C6.08629 11.5357 6.07339 11.5357 6.07339 11.5357C5.86694 11.8583 5.13146 12.1035 4.78307 12.2196C4.16371 12.439 3.47984 12.5293 2.82178 12.4648C2.71855 12.4519 2.69275 12.4519 2.66694 12.4648C2.64113 12.4777 2.66694 12.5035 2.69275 12.5293C2.82178 12.6196 2.96371 12.697 3.10565 12.7744C3.51855 12.9938 3.95726 13.1744 4.40887 13.3035C6.75726 13.9486 9.41533 13.4712 11.1831 11.7164C12.5637 10.3486 13.054 8.45186 13.054 6.54218C13.054 6.46476 13.1444 6.42605 13.196 6.38734C13.5573 6.11637 13.8411 5.79379 14.1121 5.4325C14.1766 5.35508 14.1637 5.27767 14.1637 5.25186V5.23896C14.1637 5.21315 14.1766 5.21315 14.125 5.23896Z" fill="white"/>
<path fill-rule="evenodd" clip-rule="evenodd" d="M6.07334 13.549C6.11205 13.549 7.04108 13.549 6.07334 13.549C6.06043 13.549 6.20237 13.549 6.07334 13.549ZM6.07334 13.549C5.87979 13.549 6.06043 13.549 6.07334 13.549V13.549ZM6.46043 13.5619C6.46043 13.5361 6.66688 13.5619 6.46043 13.5619C6.46043 13.549 6.48624 13.5619 6.46043 13.5619ZM10.5379 4.1167C10.5249 4.1296 10.512 4.1296 10.4862 4.1167C10.4991 4.1167 10.5249 4.1167 10.5379 4.1167Z" fill="white"/>
</svg>
